<svg width="70" height="70" viewBox="0 0 70 70" fill="none" xmlns="http://www.w3.org/2000/svg">
<path opacity="0.1" d="M35 70C54.33 70 70 54.33 70 35C70 15.67 54.33 0 35 0C15.67 0 0 15.67 0 35C0 54.33 15.67 70 35 70Z" fill="#474DFF"/>
<path d="M30.322 52.0871H24C20.1544 52.0871 16.4662 50.5594 13.747 47.8401C11.0277 45.1208 9.5 41.4327 9.5 37.5871V27.2051C9.5 23.3594 11.0277 19.6713 13.747 16.952C16.4662 14.2328 20.1544 12.7051 24 12.7051H46.5C50.3456 12.7051 54.0338 14.2328 56.753 16.952C59.4723 19.6713 61 23.3594 61 27.2051V37.5871C61 41.4327 59.4723 45.1208 56.753 47.8401C54.0338 50.5594 50.3456 52.0871 46.5 52.0871H40.228L35.275 57.0401L30.322 52.0871Z" fill="#545AEE" stroke="white" stroke-width="2"/>
<path d="M42.701 36.2942V36.9842C42.6956 37.3819 42.5352 37.7618 42.2539 38.043C41.9727 38.3243 41.5928 38.4847 41.195 38.4902H29.148C28.7503 38.4847 28.3704 38.3243 28.0891 38.043C27.8079 37.7618 27.6475 37.3819 27.642 36.9842V36.2942C27.642 34.4742 29.775 33.3452 31.783 32.4672L31.971 32.3732C32.046 32.3391 32.1283 32.3242 32.2104 32.3296C32.2926 32.335 32.3721 32.3606 32.442 32.4042C33.2418 32.9366 34.1812 33.2206 35.142 33.2202C36.1013 33.2101 37.0378 32.9271 37.842 32.4042C37.9119 32.3606 37.9915 32.335 38.0736 32.3296C38.1558 32.3242 38.238 32.3391 38.313 32.3732L38.501 32.4672C40.567 33.3452 42.701 34.4432 42.701 36.2942ZM35.171 23.4312C36.2149 23.486 37.1944 23.9529 37.8943 24.7293C38.5942 25.5057 38.9574 26.5282 38.904 27.5722C38.9574 28.6161 38.5942 29.6386 37.8943 30.415C37.1944 31.1915 36.2149 31.6583 35.171 31.7132C34.1278 31.6573 33.1494 31.19 32.4503 30.4137C31.7512 29.6374 31.3886 28.6155 31.442 27.5722C31.3886 26.5288 31.7512 25.5069 32.4503 24.7306C33.1494 23.9543 34.1278 23.487 35.171 23.4312Z" fill="white"/>
<path d="M18.145 18.05L13.829 17.423L11.901 13.512C11.8094 13.3545 11.6781 13.2237 11.5202 13.1328C11.3622 13.042 11.1832 12.9941 11.001 12.9941C10.8188 12.9941 10.6397 13.042 10.4818 13.1328C10.3239 13.2237 10.1925 13.3545 10.101 13.512L8.17397 17.423L3.85697 18.05C3.6719 18.0764 3.49793 18.1541 3.3548 18.2743C3.21167 18.3946 3.10511 18.5525 3.04721 18.7303C2.98932 18.908 2.98241 19.0985 3.02726 19.2799C3.07211 19.4614 3.16694 19.6267 3.30097 19.757L6.42497 22.801L5.68797 27.101C5.65642 27.2851 5.67705 27.4743 5.74754 27.6473C5.81803 27.8203 5.93555 27.9701 6.08679 28.0797C6.23803 28.1893 6.41694 28.2543 6.60326 28.2675C6.78958 28.2806 6.97585 28.2413 7.14097 28.154L11.001 26.125L14.862 28.155C15.0271 28.2418 15.2133 28.2807 15.3994 28.2673C15.5855 28.2538 15.7641 28.1886 15.915 28.0789C16.066 27.9693 16.1833 27.8196 16.2536 27.6468C16.3239 27.4739 16.3445 27.2849 16.313 27.101L15.576 22.801L18.701 19.758C18.8353 19.6277 18.9304 19.4624 18.9754 19.2808C19.0204 19.0991 19.0136 18.9085 18.9557 18.7306C18.8978 18.5527 18.7911 18.3945 18.6478 18.2742C18.5044 18.1539 18.3302 18.0762 18.145 18.05Z" fill="#FFC432"/>
<path opacity="0.2" d="M38.5497 11.0147C28.6222 10.4944 20.3283 14.7672 20.0248 20.5583C19.7213 26.3493 27.5231 31.4657 37.4506 31.9859C47.3781 32.5062 55.672 28.2334 55.9755 22.4424C56.279 16.6513 48.4772 11.535 38.5497 11.0147Z" fill="url(#paint0_linear_1_1155)"/>
<path opacity="0.1" d="M23.448 16.1929C16.5389 23.3406 14.318 32.4021 18.4875 36.4324C22.657 40.4627 31.6379 37.9356 38.547 30.7879C45.4561 23.6403 47.677 14.5787 43.5075 10.5484C39.338 6.51815 30.3571 9.04528 23.448 16.1929Z" fill="url(#paint1_linear_1_1155)"/>
<defs>
<linearGradient id="paint0_linear_1_1155" x1="37.4506" y1="31.9859" x2="38.5497" y2="11.0147" gradientUnits="userSpaceOnUse">
<stop stop-color="white"/>
<stop offset="1" stop-color="white" stop-opacity="0"/>
</linearGradient>
<linearGradient id="paint1_linear_1_1155" x1="38.547" y1="30.7879" x2="23.448" y2="16.1929" gradientUnits="userSpaceOnUse">
<stop stop-color="white"/>
<stop offset="1" stop-color="white" stop-opacity="0"/>
</linearGradient>
</defs>
</svg>
