<svg width="183" height="183" viewBox="0 0 183 183" fill="none" xmlns="http://www.w3.org/2000/svg">
<path d="M4.5 9C6.98528 9 9 6.98528 9 4.5C9 2.01472 6.98528 0 4.5 0C2.01472 0 0 2.01472 0 4.5C0 6.98528 2.01472 9 4.5 9Z" fill="#EFF0FE"/>
<path d="M33.5 9C35.9853 9 38 6.98528 38 4.5C38 2.01472 35.9853 0 33.5 0C31.0147 0 29 2.01472 29 4.5C29 6.98528 31.0147 9 33.5 9Z" fill="#EFF0FE"/>
<path d="M62.5 9C64.9853 9 67 6.98528 67 4.5C67 2.01472 64.9853 0 62.5 0C60.0147 0 58 2.01472 58 4.5C58 6.98528 60.0147 9 62.5 9Z" fill="#EFF0FE"/>
<path d="M91.5 9C93.9853 9 96 6.98528 96 4.5C96 2.01472 93.9853 0 91.5 0C89.0147 0 87 2.01472 87 4.5C87 6.98528 89.0147 9 91.5 9Z" fill="#EFF0FE"/>
<path d="M120.5 9C122.985 9 125 6.98528 125 4.5C125 2.01472 122.985 0 120.5 0C118.015 0 116 2.01472 116 4.5C116 6.98528 118.015 9 120.5 9Z" fill="#EFF0FE"/>
<path d="M149.5 9C151.985 9 154 6.98528 154 4.5C154 2.01472 151.985 0 149.5 0C147.015 0 145 2.01472 145 4.5C145 6.98528 147.015 9 149.5 9Z" fill="#EFF0FE"/>
<path d="M178.5 9C180.985 9 183 6.98528 183 4.5C183 2.01472 180.985 0 178.5 0C176.015 0 174 2.01472 174 4.5C174 6.98528 176.015 9 178.5 9Z" fill="#EFF0FE"/>
<path d="M4.5 38C6.98528 38 9 35.9853 9 33.5C9 31.0147 6.98528 29 4.5 29C2.01472 29 0 31.0147 0 33.5C0 35.9853 2.01472 38 4.5 38Z" fill="#EFF0FE"/>
<path d="M33.5 38C35.9853 38 38 35.9853 38 33.5C38 31.0147 35.9853 29 33.5 29C31.0147 29 29 31.0147 29 33.5C29 35.9853 31.0147 38 33.5 38Z" fill="#EFF0FE"/>
<path d="M62.5 38C64.9853 38 67 35.9853 67 33.5C67 31.0147 64.9853 29 62.5 29C60.0147 29 58 31.0147 58 33.5C58 35.9853 60.0147 38 62.5 38Z" fill="#EFF0FE"/>
<path d="M91.5 38C93.9853 38 96 35.9853 96 33.5C96 31.0147 93.9853 29 91.5 29C89.0147 29 87 31.0147 87 33.5C87 35.9853 89.0147 38 91.5 38Z" fill="#EFF0FE"/>
<path d="M120.5 38C122.985 38 125 35.9853 125 33.5C125 31.0147 122.985 29 120.5 29C118.015 29 116 31.0147 116 33.5C116 35.9853 118.015 38 120.5 38Z" fill="#EFF0FE"/>
<path d="M149.5 38C151.985 38 154 35.9853 154 33.5C154 31.0147 151.985 29 149.5 29C147.015 29 145 31.0147 145 33.5C145 35.9853 147.015 38 149.5 38Z" fill="#EFF0FE"/>
<path d="M178.5 38C180.985 38 183 35.9853 183 33.5C183 31.0147 180.985 29 178.5 29C176.015 29 174 31.0147 174 33.5C174 35.9853 176.015 38 178.5 38Z" fill="#EFF0FE"/>
<path d="M4.5 67C6.98528 67 9 64.9853 9 62.5C9 60.0147 6.98528 58 4.5 58C2.01472 58 0 60.0147 0 62.5C0 64.9853 2.01472 67 4.5 67Z" fill="#EFF0FE"/>
<path d="M33.5 67C35.9853 67 38 64.9853 38 62.5C38 60.0147 35.9853 58 33.5 58C31.0147 58 29 60.0147 29 62.5C29 64.9853 31.0147 67 33.5 67Z" fill="#EFF0FE"/>
<path d="M62.5 67C64.9853 67 67 64.9853 67 62.5C67 60.0147 64.9853 58 62.5 58C60.0147 58 58 60.0147 58 62.5C58 64.9853 60.0147 67 62.5 67Z" fill="#EFF0FE"/>
<path d="M91.5 67C93.9853 67 96 64.9853 96 62.5C96 60.0147 93.9853 58 91.5 58C89.0147 58 87 60.0147 87 62.5C87 64.9853 89.0147 67 91.5 67Z" fill="#EFF0FE"/>
<path d="M120.5 67C122.985 67 125 64.9853 125 62.5C125 60.0147 122.985 58 120.5 58C118.015 58 116 60.0147 116 62.5C116 64.9853 118.015 67 120.5 67Z" fill="#EFF0FE"/>
<path d="M149.5 67C151.985 67 154 64.9853 154 62.5C154 60.0147 151.985 58 149.5 58C147.015 58 145 60.0147 145 62.5C145 64.9853 147.015 67 149.5 67Z" fill="#EFF0FE"/>
<path d="M178.5 67C180.985 67 183 64.9853 183 62.5C183 60.0147 180.985 58 178.5 58C176.015 58 174 60.0147 174 62.5C174 64.9853 176.015 67 178.5 67Z" fill="#EFF0FE"/>
<path d="M4.5 96C6.98528 96 9 93.9853 9 91.5C9 89.0147 6.98528 87 4.5 87C2.01472 87 0 89.0147 0 91.5C0 93.9853 2.01472 96 4.5 96Z" fill="#EFF0FE"/>
<path d="M33.5 96C35.9853 96 38 93.9853 38 91.5C38 89.0147 35.9853 87 33.5 87C31.0147 87 29 89.0147 29 91.5C29 93.9853 31.0147 96 33.5 96Z" fill="#EFF0FE"/>
<path d="M62.5 96C64.9853 96 67 93.9853 67 91.5C67 89.0147 64.9853 87 62.5 87C60.0147 87 58 89.0147 58 91.5C58 93.9853 60.0147 96 62.5 96Z" fill="#EFF0FE"/>
<path d="M91.5 96C93.9853 96 96 93.9853 96 91.5C96 89.0147 93.9853 87 91.5 87C89.0147 87 87 89.0147 87 91.5C87 93.9853 89.0147 96 91.5 96Z" fill="#EFF0FE"/>
<path d="M120.5 96C122.985 96 125 93.9853 125 91.5C125 89.0147 122.985 87 120.5 87C118.015 87 116 89.0147 116 91.5C116 93.9853 118.015 96 120.5 96Z" fill="#EFF0FE"/>
<path d="M149.5 96C151.985 96 154 93.9853 154 91.5C154 89.0147 151.985 87 149.5 87C147.015 87 145 89.0147 145 91.5C145 93.9853 147.015 96 149.5 96Z" fill="#EFF0FE"/>
<path d="M178.5 96C180.985 96 183 93.9853 183 91.5C183 89.0147 180.985 87 178.5 87C176.015 87 174 89.0147 174 91.5C174 93.9853 176.015 96 178.5 96Z" fill="#EFF0FE"/>
<path d="M4.5 125C6.98528 125 9 122.985 9 120.5C9 118.015 6.98528 116 4.5 116C2.01472 116 0 118.015 0 120.5C0 122.985 2.01472 125 4.5 125Z" fill="#EFF0FE"/>
<path d="M33.5 125C35.9853 125 38 122.985 38 120.5C38 118.015 35.9853 116 33.5 116C31.0147 116 29 118.015 29 120.5C29 122.985 31.0147 125 33.5 125Z" fill="#EFF0FE"/>
<path d="M62.5 125C64.9853 125 67 122.985 67 120.5C67 118.015 64.9853 116 62.5 116C60.0147 116 58 118.015 58 120.5C58 122.985 60.0147 125 62.5 125Z" fill="#EFF0FE"/>
<path d="M91.5 125C93.9853 125 96 122.985 96 120.5C96 118.015 93.9853 116 91.5 116C89.0147 116 87 118.015 87 120.5C87 122.985 89.0147 125 91.5 125Z" fill="#EFF0FE"/>
<path d="M120.5 125C122.985 125 125 122.985 125 120.5C125 118.015 122.985 116 120.5 116C118.015 116 116 118.015 116 120.5C116 122.985 118.015 125 120.5 125Z" fill="#EFF0FE"/>
<path d="M149.5 125C151.985 125 154 122.985 154 120.5C154 118.015 151.985 116 149.5 116C147.015 116 145 118.015 145 120.5C145 122.985 147.015 125 149.5 125Z" fill="#EFF0FE"/>
<path d="M178.5 125C180.985 125 183 122.985 183 120.5C183 118.015 180.985 116 178.5 116C176.015 116 174 118.015 174 120.5C174 122.985 176.015 125 178.5 125Z" fill="#EFF0FE"/>
<path d="M4.5 154C6.98528 154 9 151.985 9 149.5C9 147.015 6.98528 145 4.5 145C2.01472 145 0 147.015 0 149.5C0 151.985 2.01472 154 4.5 154Z" fill="#EFF0FE"/>
<path d="M33.5 154C35.9853 154 38 151.985 38 149.5C38 147.015 35.9853 145 33.5 145C31.0147 145 29 147.015 29 149.5C29 151.985 31.0147 154 33.5 154Z" fill="#EFF0FE"/>
<path d="M62.5 154C64.9853 154 67 151.985 67 149.5C67 147.015 64.9853 145 62.5 145C60.0147 145 58 147.015 58 149.5C58 151.985 60.0147 154 62.5 154Z" fill="#EFF0FE"/>
<path d="M91.5 154C93.9853 154 96 151.985 96 149.5C96 147.015 93.9853 145 91.5 145C89.0147 145 87 147.015 87 149.5C87 151.985 89.0147 154 91.5 154Z" fill="#EFF0FE"/>
<path d="M120.5 154C122.985 154 125 151.985 125 149.5C125 147.015 122.985 145 120.5 145C118.015 145 116 147.015 116 149.5C116 151.985 118.015 154 120.5 154Z" fill="#EFF0FE"/>
<path d="M149.5 154C151.985 154 154 151.985 154 149.5C154 147.015 151.985 145 149.5 145C147.015 145 145 147.015 145 149.5C145 151.985 147.015 154 149.5 154Z" fill="#EFF0FE"/>
<path d="M178.5 154C180.985 154 183 151.985 183 149.5C183 147.015 180.985 145 178.5 145C176.015 145 174 147.015 174 149.5C174 151.985 176.015 154 178.5 154Z" fill="#EFF0FE"/>
<path d="M4.5 183C6.98528 183 9 180.985 9 178.5C9 176.015 6.98528 174 4.5 174C2.01472 174 0 176.015 0 178.5C0 180.985 2.01472 183 4.5 183Z" fill="#EFF0FE"/>
<path d="M33.5 183C35.9853 183 38 180.985 38 178.5C38 176.015 35.9853 174 33.5 174C31.0147 174 29 176.015 29 178.5C29 180.985 31.0147 183 33.5 183Z" fill="#EFF0FE"/>
<path d="M62.5 183C64.9853 183 67 180.985 67 178.5C67 176.015 64.9853 174 62.5 174C60.0147 174 58 176.015 58 178.5C58 180.985 60.0147 183 62.5 183Z" fill="#EFF0FE"/>
<path d="M91.5 183C93.9853 183 96 180.985 96 178.5C96 176.015 93.9853 174 91.5 174C89.0147 174 87 176.015 87 178.5C87 180.985 89.0147 183 91.5 183Z" fill="#EFF0FE"/>
<path d="M120.5 183C122.985 183 125 180.985 125 178.5C125 176.015 122.985 174 120.5 174C118.015 174 116 176.015 116 178.5C116 180.985 118.015 183 120.5 183Z" fill="#EFF0FE"/>
<path d="M149.5 183C151.985 183 154 180.985 154 178.5C154 176.015 151.985 174 149.5 174C147.015 174 145 176.015 145 178.5C145 180.985 147.015 183 149.5 183Z" fill="#EFF0FE"/>
<path d="M178.5 183C180.985 183 183 180.985 183 178.5C183 176.015 180.985 174 178.5 174C176.015 174 174 176.015 174 178.5C174 180.985 176.015 183 178.5 183Z" fill="#EFF0FE"/>
</svg>
