<svg width="26" height="25" viewBox="0 0 26 25" fill="none" xmlns="http://www.w3.org/2000/svg">
<path d="M21.06 10.727C21.8393 10.717 22.6187 10.705 23.398 10.691C24.298 10.679 25.145 10.612 25.198 11.954C25.255 13.327 24.514 13.596 23.398 13.614C21.936 13.636 20.475 13.677 19.017 13.746C18.462 13.772 17.667 13.554 17.43 14.114C17.104 14.885 17.991 15.223 18.43 15.667C19.523 16.776 20.643 17.867 21.823 18.88C22.781 19.704 22.414 20.295 21.744 21.05C21.044 21.837 20.497 21.722 19.819 21.062C18.4857 19.7747 17.134 18.5107 15.764 17.27C14.995 16.578 14.505 16.879 14.505 17.841C14.505 19.594 14.58 21.341 14.647 23.096C14.685 24.096 14.455 24.796 13.258 24.859C12.061 24.922 11.746 24.323 11.723 23.276C11.685 21.525 11.591 19.776 11.498 18.023C11.48 17.659 11.498 17.223 11.061 17.047C10.593 16.855 10.34 17.258 10.091 17.515C8.80499 18.843 7.52999 20.185 6.285 21.556C5.585 22.333 5.014 22.182 4.348 21.501C3.731 20.871 3.35799 20.329 4.11899 19.539C5.47099 18.139 6.78899 16.703 8.10299 15.263C8.28899 15.063 8.51999 14.747 8.48398 14.524C8.40698 14.054 7.95199 14.056 7.56499 14.062C5.71699 14.098 3.865 14.125 2.014 14.183C1.114 14.209 0.54799 13.993 0.50199 12.92C0.45599 11.847 0.756994 11.272 1.92699 11.264C3.77699 11.254 5.62699 11.177 7.47799 11.114C7.84999 11.102 8.328 11.122 8.378 10.626C8.396 10.405 8.145 10.116 7.951 9.92597C6.621 8.63797 5.29499 7.345 3.92599 6.102C3.17099 5.418 2.90199 4.871 3.71299 3.96399C4.63199 2.936 5.24999 3.20098 6.06699 4.03898C7.29199 5.28998 8.6 6.46199 9.895 7.64499C10.154 7.88199 10.421 8.32299 10.871 8.04499C11.25 7.81199 11.15 7.37298 11.142 6.99998C11.099 5.24498 11.087 3.492 10.996 1.74C10.939 0.674996 11.283 0.109994 12.417 0.00699432C13.658 -0.104006 13.899 0.58399 13.925 1.58399C13.9677 3.43466 14.027 5.2843 14.103 7.13297C14.0885 7.4115 14.1764 7.68574 14.35 7.904C14.75 8.234 15.067 7.85999 15.326 7.58799C16.605 6.24999 17.889 4.91799 19.126 3.54499C19.826 2.77399 20.41 2.49798 21.286 3.36298C22.086 4.14398 22.163 4.71098 21.343 5.52698C19.96 6.89798 18.655 8.34699 17.353 9.79499C16.78 10.431 16.995 10.838 17.845 10.84C18.916 10.846 19.987 10.814 21.06 10.796C21.06 10.778 21.06 10.754 21.06 10.727Z" fill="#00E5FF"/>
</svg>
