<svg width="49" height="57" viewBox="0 0 49 57" fill="none" xmlns="http://www.w3.org/2000/svg">
<path d="M14.9831 23.4984C15.5875 23.9292 16.0652 24.5144 16.3661 25.193C16.7334 25.8669 17.0389 26.5837 17.4508 27.2302C18.279 28.5317 19.2538 28.5414 20.172 27.2829C20.4419 26.8842 20.6908 26.4718 20.9178 26.0472C21.2412 25.4551 21.6337 24.9034 22.0872 24.4038C22.351 24.071 22.6893 23.8049 23.0749 23.6268C23.4604 23.4488 23.8824 23.3638 24.3068 23.3787C24.7312 23.3937 25.1461 23.5081 25.5182 23.7128C25.8903 23.9174 26.2091 24.2067 26.4489 24.5571C26.8693 25.1432 27.2342 25.7672 27.539 26.4209C28.0149 27.2846 28.2651 28.4833 29.467 28.5536C30.6961 28.6247 31.0379 27.4468 31.5449 26.6045C31.9218 25.9323 32.3695 25.3024 32.8804 24.7254C33.1371 24.4186 33.459 24.1729 33.8226 24.0061C34.1862 23.8392 34.5825 23.7555 34.9825 23.761C35.3825 23.7665 35.7763 23.861 36.1352 24.0377C36.4941 24.2144 36.8091 24.4689 37.0574 24.7826C37.5637 25.4261 37.9845 26.1325 38.3094 26.8841C38.5839 27.7129 39.1306 28.4245 39.8606 28.9033C40.2406 29.0892 40.2253 29.4337 40.2131 29.7708C40.1953 30.2535 39.9946 30.4933 39.478 30.3001C38.7432 30.0432 38.1236 29.5336 37.7296 28.8623C37.3895 28.2814 37.1032 27.6693 36.777 27.0802C36.5643 26.6494 36.3155 26.2373 36.0333 25.8484C35.9284 25.6693 35.7808 25.519 35.6037 25.4109C35.4265 25.3027 35.2254 25.2401 35.0182 25.2287C34.811 25.2172 34.6041 25.2572 34.4161 25.3452C34.2281 25.4331 34.0649 25.5662 33.9408 25.7326C33.5367 26.1467 33.1926 26.6154 32.9187 27.1251C32.6238 27.6771 32.295 28.2104 31.9344 28.7219C31.683 29.1404 31.3258 29.4853 30.8989 29.7221C30.4719 29.9588 29.9902 30.0791 29.502 30.0707C29.0139 30.0623 28.5366 29.9256 28.118 29.6744C27.6994 29.4231 27.3543 29.0661 27.1173 28.6393C26.6801 28.0127 26.3811 27.2905 26.0052 26.6196C25.5868 25.8723 25.2927 24.9196 24.263 24.8771C23.2334 24.8346 22.8359 25.7309 22.3676 26.4501C21.9999 27.0149 21.7089 27.631 21.3164 28.1768C19.835 30.2326 17.6111 30.1945 16.2481 28.0693C15.7552 27.3032 15.4093 26.4442 14.9482 25.6549C14.0452 24.107 12.9905 24.0558 11.9734 25.5193C11.535 26.1507 11.1922 26.8465 10.7803 27.4978C10.3758 28.2177 9.74555 28.7843 8.98689 29.1101C8.68869 29.2266 8.27974 29.449 8.06583 29.1315C7.81912 28.7708 7.8082 28.1017 8.15833 27.9413C9.63449 27.2705 9.98528 25.7629 10.8194 24.6221C12.0212 22.9766 13.472 22.5498 14.9831 23.4984Z" fill="#00FFC2"/>
<path d="M2.49312 40.2797C2.58463 40.2032 2.72623 40.0759 2.87745 39.96C3.8711 39.207 4.88596 38.4812 5.85261 37.6929C6.35007 37.2873 6.66594 37.3542 7.02399 37.838C7.78873 38.8834 8.56106 39.9217 9.36053 40.941C9.69354 41.3642 9.71497 41.6491 9.23925 41.991C8.18889 42.7483 7.16504 43.5417 6.14922 44.3431C5.69975 44.6956 5.36815 44.764 4.9837 44.2199C4.23626 43.1625 3.42374 42.1518 2.64954 41.1148C2.47911 40.894 2.24816 40.666 2.49312 40.2797Z" fill="#00FFC2"/>
<path d="M32.118 13.7198C31.7301 13.4914 31.3909 13.1889 31.1199 12.8294C30.8489 12.4699 30.6513 12.0606 30.5385 11.6248C30.4256 11.189 30.3997 10.7352 30.4623 10.2894C30.5248 9.84355 30.6745 9.4144 30.9029 9.02645C31.1313 8.63849 31.4339 8.29932 31.7933 8.02829C32.1528 7.75726 32.5621 7.55969 32.9979 7.44686C33.4337 7.33403 33.8875 7.30814 34.3333 7.37067C34.7792 7.43321 35.2083 7.58294 35.5963 7.81133C35.9987 8.03244 36.351 8.33442 36.6311 8.69827C36.9112 9.06212 37.113 9.47998 37.2238 9.92558C37.3346 10.3712 37.352 10.8349 37.275 11.2875C37.1979 11.7402 37.028 12.172 36.7761 12.5559C36.5483 12.94 36.2467 13.275 35.8886 13.5418C35.5305 13.8085 35.1231 14.0016 34.6899 14.1098C34.2567 14.2181 33.8064 14.2393 33.3649 14.1724C32.9235 14.1054 32.4997 13.9516 32.118 13.7198ZM32.1207 9.8092C31.995 10.0407 31.9167 10.2949 31.8902 10.557C31.8636 10.819 31.8895 11.0838 31.9662 11.3358C32.0429 11.5878 32.169 11.822 32.337 12.0248C32.5051 12.2276 32.7118 12.395 32.9451 12.5172C33.3939 12.7553 33.9176 12.8096 34.4056 12.6686C34.8937 12.5276 35.3077 12.2023 35.5603 11.7616C35.6999 11.5379 35.7921 11.2879 35.8311 11.0272C35.8702 10.7664 35.8554 10.5004 35.7875 10.2456C35.7197 9.99082 35.6002 9.75267 35.4366 9.5459C35.273 9.33912 35.0687 9.16811 34.8364 9.04347C34.6091 8.9102 34.3572 8.82422 34.0959 8.79066C33.8345 8.7571 33.5691 8.77665 33.3155 8.84816C33.0619 8.91966 32.8254 9.04164 32.6201 9.20678C32.4147 9.37193 32.2449 9.57683 32.1207 9.8092Z" fill="#00FFC2"/>
</svg>
