<svg width="121" height="19" viewBox="0 0 121 19" fill="none" xmlns="http://www.w3.org/2000/svg">
<path d="M0.247989 7.17774C0.311135 6.95803 0.438772 6.76232 0.614382 6.61595C0.789992 6.46958 1.00549 6.37928 1.23299 6.35674L6.73299 5.94574L8.78899 0.934745C8.86046 0.733717 8.99496 0.561156 9.17245 0.442767C9.34994 0.324378 9.56093 0.266496 9.77399 0.277745C10.0064 0.276286 10.2335 0.346441 10.4246 0.478666C10.6157 0.610891 10.7615 0.798769 10.842 1.01674L12.895 6.02574L18.395 6.43674C18.622 6.41386 18.8492 6.47715 19.0317 6.61405C19.2142 6.75095 19.3385 6.95144 19.38 7.17574C19.454 7.39044 19.4623 7.62233 19.4039 7.84178C19.3455 8.06123 19.223 8.25828 19.052 8.40774L14.866 11.9387L16.18 17.1947C16.2396 17.4178 16.2325 17.6534 16.1594 17.8724C16.0864 18.0914 15.9506 18.2842 15.769 18.4267C15.5877 18.5794 15.3621 18.6698 15.1255 18.6846C14.8889 18.6993 14.6539 18.6377 14.455 18.5087L9.77399 15.6337L5.09299 18.5077C4.89367 18.6355 4.65885 18.6964 4.42258 18.6816C4.18631 18.6669 3.96088 18.5773 3.77899 18.4257C3.58248 18.2962 3.43503 18.1046 3.36017 17.8815C3.28531 17.6583 3.28736 17.4166 3.36599 17.1947L4.67999 11.9387L0.493989 8.40774C0.334449 8.25098 0.225694 8.0499 0.181829 7.83058C0.137964 7.61125 0.161014 7.38381 0.247989 7.17774Z" fill="#FFC432"/>
<path d="M25.704 7.17774C25.7671 6.95803 25.8948 6.76232 26.0704 6.61595C26.246 6.46958 26.4615 6.37928 26.689 6.35674L32.189 5.94574L34.245 0.934745C34.3165 0.733717 34.4509 0.561156 34.6284 0.442767C34.8059 0.324378 35.0169 0.266496 35.23 0.277745C35.4624 0.276286 35.6895 0.346441 35.8806 0.478666C36.0717 0.610891 36.2174 0.798769 36.298 1.01674L38.351 6.02574L43.851 6.43674C44.0779 6.41386 44.3052 6.47715 44.4877 6.61405C44.6701 6.75095 44.7945 6.95144 44.836 7.17574C44.91 7.39044 44.9183 7.62233 44.8599 7.84178C44.8015 8.06123 44.679 8.25828 44.508 8.40774L40.322 11.9387L41.636 17.1947C41.6956 17.4178 41.6885 17.6534 41.6154 17.8724C41.5423 18.0914 41.4066 18.2842 41.225 18.4267C41.0437 18.5794 40.8181 18.6698 40.5815 18.6846C40.3449 18.6993 40.1099 18.6377 39.911 18.5087L35.23 15.6337L30.549 18.5077C30.3497 18.6355 30.1148 18.6964 29.8786 18.6816C29.6423 18.6669 29.4169 18.5773 29.235 18.4257C29.0385 18.2962 28.891 18.1046 28.8162 17.8815C28.7413 17.6583 28.7434 17.4166 28.822 17.1947L30.136 11.9387L25.95 8.40774C25.7904 8.25098 25.6817 8.0499 25.6378 7.83058C25.594 7.61125 25.617 7.38381 25.704 7.17774Z" fill="#FFC432"/>
<path d="M51.161 7.17774C51.2241 6.95803 51.3517 6.76232 51.5273 6.61595C51.703 6.46958 51.9185 6.37928 52.146 6.35674L57.646 5.94574L59.702 0.934745C59.7734 0.733717 59.9079 0.561156 60.0854 0.442767C60.2629 0.324378 60.4739 0.266496 60.687 0.277745C60.9193 0.276286 61.1465 0.346441 61.3376 0.478666C61.5287 0.610891 61.6744 0.798769 61.755 1.01674L63.808 6.02574L69.308 6.43674C69.5349 6.41386 69.7622 6.47715 69.9446 6.61405C70.1271 6.75095 70.2514 6.95144 70.293 7.17574C70.367 7.39044 70.3753 7.62233 70.3169 7.84178C70.2585 8.06123 70.1359 8.25828 69.965 8.40774L65.779 11.9387L67.093 17.1947C67.1526 17.4178 67.1454 17.6534 67.0724 17.8724C66.9993 18.0914 66.8636 18.2842 66.682 18.4267C66.5006 18.5794 66.2751 18.6698 66.0385 18.6846C65.8019 18.6993 65.5668 18.6377 65.368 18.5087L60.687 15.6337L56.006 18.5077C55.8066 18.6355 55.5718 18.6964 55.3355 18.6816C55.0993 18.6669 54.8738 18.5773 54.692 18.4257C54.4954 18.2962 54.348 18.1046 54.2731 17.8815C54.1983 17.6583 54.2003 17.4166 54.279 17.1947L55.593 11.9387L51.407 8.40774C51.2474 8.25098 51.1387 8.0499 51.0948 7.83058C51.0509 7.61125 51.074 7.38381 51.161 7.17774Z" fill="#FFC432"/>
<path d="M76.618 7.17774C76.6811 6.95803 76.8088 6.76232 76.9844 6.61595C77.16 6.46958 77.3755 6.37928 77.603 6.35674L83.103 5.94574L85.159 0.934745C85.2305 0.733717 85.365 0.561156 85.5424 0.442767C85.7199 0.324378 85.9309 0.266496 86.144 0.277745C86.3764 0.276286 86.6035 0.346441 86.7946 0.478666C86.9857 0.610891 87.1314 0.798769 87.212 1.01674L89.265 6.02574L94.765 6.43674C94.9919 6.41386 95.2192 6.47715 95.4017 6.61405C95.5841 6.75095 95.7085 6.95144 95.75 7.17574C95.824 7.39044 95.8323 7.62233 95.7739 7.84178C95.7155 8.06123 95.593 8.25828 95.422 8.40774L91.236 11.9387L92.55 17.1947C92.6096 17.4178 92.6025 17.6534 92.5294 17.8724C92.4564 18.0914 92.3206 18.2842 92.139 18.4267C91.9577 18.5794 91.7321 18.6698 91.4955 18.6846C91.2589 18.6993 91.0239 18.6377 90.825 18.5087L86.144 15.6337L81.463 18.5077C81.2637 18.6355 81.0288 18.6964 80.7926 18.6816C80.5563 18.6669 80.3309 18.5773 80.149 18.4257C79.9525 18.2962 79.805 18.1046 79.7302 17.8815C79.6553 17.6583 79.6574 17.4166 79.736 17.1947L81.05 11.9387L76.864 8.40774C76.7044 8.25098 76.5957 8.0499 76.5518 7.83058C76.508 7.61125 76.531 7.38381 76.618 7.17774Z" fill="#FFC432"/>
<path d="M101.618 7.17774C101.681 6.95803 101.809 6.76232 101.984 6.61595C102.16 6.46958 102.375 6.37928 102.603 6.35674L108.103 5.94574L110.159 0.934745C110.23 0.733717 110.365 0.561156 110.542 0.442767C110.72 0.324378 110.931 0.266496 111.144 0.277745C111.376 0.276286 111.604 0.346441 111.795 0.478666C111.986 0.610891 112.131 0.798769 112.212 1.01674L114.265 6.02574L119.765 6.43674C119.992 6.41386 120.219 6.47715 120.402 6.61405C120.584 6.75095 120.708 6.95144 120.75 7.17574C120.824 7.39044 120.832 7.62233 120.774 7.84178C120.715 8.06123 120.593 8.25828 120.422 8.40774L116.236 11.9387L117.55 17.1947C117.61 17.4178 117.602 17.6534 117.529 17.8724C117.456 18.0914 117.321 18.2842 117.139 18.4267C116.958 18.5794 116.732 18.6698 116.496 18.6846C116.259 18.6993 116.024 18.6377 115.825 18.5087L111.144 15.6337L106.463 18.5077C106.264 18.6355 106.029 18.6964 105.793 18.6816C105.556 18.6669 105.331 18.5773 105.149 18.4257C104.952 18.2962 104.805 18.1046 104.73 17.8815C104.655 17.6583 104.657 17.4166 104.736 17.1947L106.05 11.9387L101.864 8.40774C101.704 8.25098 101.596 8.0499 101.552 7.83058C101.508 7.61125 101.531 7.38381 101.618 7.17774Z" fill="#FFC432"/>
</svg>
