<svg width="304" height="300" viewBox="0 0 304 300" fill="none" xmlns="http://www.w3.org/2000/svg">
<path d="M180 0H60C45.0883 0 33 12.0883 33 27V273C33 287.912 45.0883 300 60 300H180C194.912 300 207 287.912 207 273V27C207 12.0883 194.912 0 180 0Z" fill="#474DFF"/>
<path opacity="0.2" d="M146 239H94C81.8497 239 72 248.85 72 261C72 273.15 81.8497 283 94 283H146C158.15 283 168 273.15 168 261C168 248.85 158.15 239 146 239Z" fill="white"/>
<path opacity="0.2" d="M160.349 43.671H90.349C88.1399 43.671 86.349 45.4618 86.349 47.671C86.349 49.8801 88.1399 51.671 90.349 51.671H160.349C162.558 51.671 164.349 49.8801 164.349 47.671C164.349 45.4618 162.558 43.671 160.349 43.671Z" fill="white"/>
<g opacity="0.5">
<path opacity="0.5" d="M77.686 51.318V52.229C77.6788 52.754 77.467 53.2554 77.0957 53.6267C76.7245 53.998 76.223 54.2097 75.698 54.217H59.791C59.266 54.2097 58.7646 53.998 58.3933 53.6267C58.022 53.2554 57.8103 52.754 57.803 52.229V51.318C57.803 48.918 60.62 47.424 63.271 46.264L63.52 46.14C63.619 46.0956 63.7274 46.0761 63.8356 46.0832C63.9439 46.0904 64.0487 46.1239 64.141 46.181C65.1962 46.8833 66.4355 47.258 67.703 47.258C68.9685 47.2443 70.2039 46.8707 71.265 46.181C71.3573 46.1239 71.4622 46.0904 71.5704 46.0832C71.6787 46.0761 71.787 46.0956 71.886 46.14L72.135 46.264C74.869 47.424 77.686 48.874 77.686 51.318ZM67.745 34.334C69.1234 34.4064 70.4167 35.0229 71.3409 36.0481C72.2651 37.0734 72.7445 38.4235 72.674 39.802C72.7445 41.1805 72.2651 42.5306 71.3409 43.5558C70.4167 44.5811 69.1234 45.1976 67.745 45.27C66.3664 45.1978 65.0729 44.5814 64.1485 43.5562C63.2241 42.5309 62.7445 41.1806 62.815 39.802C62.7445 38.4233 63.2241 37.0731 64.1485 36.0478C65.0729 35.0225 66.3664 34.4061 67.745 34.334Z" fill="white"/>
</g>
<path opacity="0.2" d="M160.349 83.6709H90.349C88.1399 83.6709 86.349 85.4618 86.349 87.6709C86.349 89.88 88.1399 91.6709 90.349 91.6709H160.349C162.558 91.6709 164.349 89.88 164.349 87.6709C164.349 85.4618 162.558 83.6709 160.349 83.6709Z" fill="white"/>
<g opacity="0.5">
<path opacity="0.5" d="M77.686 91.318V92.229C77.6788 92.754 77.467 93.2554 77.0957 93.6267C76.7245 93.998 76.223 94.2097 75.698 94.217H59.791C59.266 94.2097 58.7646 93.998 58.3933 93.6267C58.022 93.2554 57.8103 92.754 57.803 92.229V91.318C57.803 88.918 60.62 87.424 63.271 86.264L63.52 86.14C63.619 86.0956 63.7274 86.0761 63.8356 86.0832C63.9439 86.0904 64.0487 86.1239 64.141 86.181C65.1962 86.8833 66.4355 87.258 67.703 87.258C68.9685 87.2443 70.2039 86.8707 71.265 86.181C71.3573 86.1239 71.4622 86.0904 71.5704 86.0832C71.6787 86.0761 71.787 86.0956 71.886 86.14L72.135 86.264C74.869 87.424 77.686 88.874 77.686 91.318ZM67.745 74.334C69.1234 74.4064 70.4167 75.0229 71.3409 76.0481C72.2651 77.0734 72.7445 78.4235 72.674 79.802C72.7445 81.1805 72.2651 82.5306 71.3409 83.5558C70.4167 84.5811 69.1234 85.1976 67.745 85.27C66.3664 85.1978 65.0729 84.5814 64.1485 83.5562C63.2241 82.5309 62.7445 81.1806 62.815 79.802C62.7445 78.4233 63.2241 77.0731 64.1485 76.0478C65.0729 75.0225 66.3664 74.4061 67.745 74.334Z" fill="white"/>
</g>
<path opacity="0.2" d="M160.349 123.671H90.349C88.1399 123.671 86.349 125.462 86.349 127.671C86.349 129.88 88.1399 131.671 90.349 131.671H160.349C162.558 131.671 164.349 129.88 164.349 127.671C164.349 125.462 162.558 123.671 160.349 123.671Z" fill="white"/>
<g opacity="0.5">
<path opacity="0.5" d="M77.686 131.318V132.229C77.6788 132.754 77.467 133.255 77.0957 133.627C76.7245 133.998 76.223 134.21 75.698 134.217H59.791C59.266 134.21 58.7646 133.998 58.3933 133.627C58.022 133.255 57.8103 132.754 57.803 132.229V131.318C57.803 128.918 60.62 127.424 63.271 126.264L63.52 126.14C63.619 126.096 63.7274 126.076 63.8356 126.083C63.9439 126.09 64.0487 126.124 64.141 126.181C65.1962 126.883 66.4355 127.258 67.703 127.258C68.9685 127.244 70.2039 126.871 71.265 126.181C71.3573 126.124 71.4622 126.09 71.5704 126.083C71.6787 126.076 71.787 126.096 71.886 126.14L72.135 126.264C74.869 127.424 77.686 128.874 77.686 131.318ZM67.745 114.334C69.1234 114.406 70.4167 115.023 71.3409 116.048C72.2651 117.073 72.7445 118.423 72.674 119.802C72.7445 121.18 72.2651 122.531 71.3409 123.556C70.4167 124.581 69.1234 125.198 67.745 125.27C66.3664 125.198 65.0729 124.581 64.1485 123.556C63.2241 122.531 62.7445 121.181 62.815 119.802C62.7445 118.423 63.2241 117.073 64.1485 116.048C65.0729 115.023 66.3664 114.406 67.745 114.334Z" fill="white"/>
</g>
<path opacity="0.2" d="M160.349 163.671H90.349C88.1399 163.671 86.349 165.462 86.349 167.671C86.349 169.88 88.1399 171.671 90.349 171.671H160.349C162.558 171.671 164.349 169.88 164.349 167.671C164.349 165.462 162.558 163.671 160.349 163.671Z" fill="white"/>
<g opacity="0.5">
<path opacity="0.5" d="M77.686 171.318V172.229C77.6788 172.754 77.467 173.255 77.0957 173.627C76.7245 173.998 76.223 174.21 75.698 174.217H59.791C59.266 174.21 58.7646 173.998 58.3933 173.627C58.022 173.255 57.8103 172.754 57.803 172.229V171.318C57.803 168.918 60.62 167.424 63.271 166.264L63.52 166.14C63.619 166.096 63.7274 166.076 63.8356 166.083C63.9439 166.09 64.0487 166.124 64.141 166.181C65.1962 166.883 66.4355 167.258 67.703 167.258C68.9685 167.244 70.2039 166.871 71.265 166.181C71.3573 166.124 71.4622 166.09 71.5704 166.083C71.6787 166.076 71.787 166.096 71.886 166.14L72.135 166.264C74.869 167.424 77.686 168.874 77.686 171.318ZM67.745 154.334C69.1234 154.406 70.4167 155.023 71.3409 156.048C72.2651 157.073 72.7445 158.423 72.674 159.802C72.7445 161.18 72.2651 162.531 71.3409 163.556C70.4167 164.581 69.1234 165.198 67.745 165.27C66.3664 165.198 65.0729 164.581 64.1485 163.556C63.2241 162.531 62.7445 161.181 62.815 159.802C62.7445 158.423 63.2241 157.073 64.1485 156.048C65.0729 155.023 66.3664 154.406 67.745 154.334Z" fill="white"/>
</g>
<path opacity="0.2" d="M160.349 203.671H90.349C88.1399 203.671 86.349 205.462 86.349 207.671C86.349 209.88 88.1399 211.671 90.349 211.671H160.349C162.558 211.671 164.349 209.88 164.349 207.671C164.349 205.462 162.558 203.671 160.349 203.671Z" fill="white"/>
<g opacity="0.5">
<path opacity="0.5" d="M77.686 211.318V212.229C77.6788 212.754 77.467 213.255 77.0957 213.627C76.7245 213.998 76.223 214.21 75.698 214.217H59.791C59.266 214.21 58.7646 213.998 58.3933 213.627C58.022 213.255 57.8103 212.754 57.803 212.229V211.318C57.803 208.918 60.62 207.424 63.271 206.264L63.52 206.14C63.619 206.096 63.7274 206.076 63.8356 206.083C63.9439 206.09 64.0487 206.124 64.141 206.181C65.1962 206.883 66.4355 207.258 67.703 207.258C68.9685 207.244 70.2039 206.871 71.265 206.181C71.3573 206.124 71.4622 206.09 71.5704 206.083C71.6787 206.076 71.787 206.096 71.886 206.14L72.135 206.264C74.869 207.424 77.686 208.874 77.686 211.318ZM67.745 194.334C69.1234 194.406 70.4167 195.023 71.3409 196.048C72.2651 197.073 72.7445 198.423 72.674 199.802C72.7445 201.18 72.2651 202.531 71.3409 203.556C70.4167 204.581 69.1234 205.198 67.745 205.27C66.3664 205.198 65.0729 204.581 64.1485 203.556C63.2241 202.531 62.7445 201.181 62.815 199.802C62.7445 198.423 63.2241 197.073 64.1485 196.048C65.0729 195.023 66.3664 194.406 67.745 194.334Z" fill="white"/>
</g>
<g filter="url(#filter0_d_1_431)">
<path d="M244 103H60C54.4772 103 50 107.477 50 113V141C50 146.523 54.4772 151 60 151H244C249.523 151 254 146.523 254 141V113C254 107.477 249.523 103 244 103Z" fill="white"/>
</g>
<path d="M83.792 133.984V134.895C83.7848 135.42 83.573 135.921 83.2017 136.293C82.8305 136.664 82.329 136.876 81.804 136.883H65.897C65.372 136.876 64.8705 136.664 64.4993 136.293C64.128 135.921 63.9162 135.42 63.909 134.895V133.984C63.909 131.584 66.726 130.09 69.377 128.93L69.626 128.806C69.725 128.762 69.8333 128.742 69.9416 128.749C70.0499 128.756 70.1547 128.79 70.247 128.847C71.3022 129.549 72.5414 129.924 73.809 129.924C75.0745 129.91 76.3099 129.537 77.371 128.847C77.4633 128.79 77.5681 128.756 77.6764 128.749C77.7847 128.742 77.893 128.762 77.992 128.806L78.241 128.93C80.975 130.09 83.792 131.54 83.792 133.984ZM73.851 117C75.2294 117.072 76.5227 117.689 77.4469 118.714C78.371 119.739 78.8505 121.09 78.78 122.468C78.8505 123.846 78.371 125.197 77.4469 126.222C76.5227 127.247 75.2294 127.864 73.851 127.936C72.4724 127.864 71.1789 127.247 70.2545 126.222C69.3301 125.197 68.8505 123.847 68.921 122.468C68.8505 121.089 69.3301 119.739 70.2545 118.714C71.1789 117.689 72.4724 117.072 73.851 117Z" fill="#FFC432"/>
<path d="M204.553 123H100.553C98.3439 123 96.553 124.791 96.553 127C96.553 129.209 98.3439 131 100.553 131H204.553C206.762 131 208.553 129.209 208.553 127C208.553 124.791 206.762 123 204.553 123Z" fill="#FFC432"/>
<path d="M221.033 125.019C221.079 124.859 221.171 124.716 221.299 124.609C221.427 124.502 221.584 124.436 221.75 124.419L225.75 124.119L227.246 120.478C227.298 120.332 227.396 120.206 227.525 120.12C227.654 120.034 227.808 119.992 227.963 120C228.132 119.999 228.297 120.05 228.436 120.146C228.575 120.243 228.681 120.379 228.74 120.538L230.234 124.182L234.234 124.482C234.399 124.465 234.565 124.512 234.697 124.611C234.83 124.711 234.921 124.857 234.951 125.02C235.006 125.177 235.012 125.346 234.969 125.507C234.927 125.667 234.837 125.811 234.712 125.92L231.667 128.484L232.623 132.308C232.667 132.471 232.662 132.643 232.609 132.803C232.555 132.963 232.456 133.104 232.323 133.208C232.191 133.32 232.027 133.386 231.855 133.397C231.683 133.408 231.512 133.363 231.367 133.268L227.963 131.172L224.558 133.264C224.413 133.356 224.241 133.4 224.07 133.388C223.898 133.377 223.734 133.311 223.602 133.2C223.458 133.106 223.35 132.965 223.296 132.802C223.242 132.639 223.244 132.462 223.302 132.3L224.258 128.476L221.212 125.915C221.096 125.801 221.016 125.654 220.985 125.495C220.953 125.335 220.97 125.169 221.033 125.019Z" fill="#FFC432"/>
<defs>
<filter id="filter0_d_1_431" x="0" y="73" width="304" height="148" filterUnits="userSpaceOnUse" color-interpolation-filters="sRGB">
<feFlood flood-opacity="0" result="BackgroundImageFix"/>
<feColorMatrix in="SourceAlpha" type="matrix" values="0 0 0 0 0 0 0 0 0 0 0 0 0 0 0 0 0 0 127 0" result="hardAlpha"/>
<feOffset dy="20"/>
<feGaussianBlur stdDeviation="25"/>
<feColorMatrix type="matrix" values="0 0 0 0 0 0 0 0 0 0 0 0 0 0 0 0 0 0 0.161 0"/>
<feBlend mode="normal" in2="BackgroundImageFix" result="effect1_dropShadow_1_431"/>
<feBlend mode="normal" in="SourceGraphic" in2="effect1_dropShadow_1_431" result="shape"/>
</filter>
</defs>
</svg>
