<svg width="70" height="70" viewBox="0 0 70 70" fill="none" xmlns="http://www.w3.org/2000/svg">
<path opacity="0.1" d="M35 70C54.33 70 70 54.33 70 35C70 15.67 54.33 0 35 0C15.67 0 0 15.67 0 35C0 54.33 15.67 70 35 70Z" fill="#474DFF"/>
<path d="M24 16.7051H46.5C50.3456 16.7051 54.0338 18.2328 56.753 20.952C59.4723 23.6713 61 27.3594 61 31.2051V41.5871C61 45.4327 59.4723 49.1208 56.753 51.8401C54.0338 54.5594 50.3456 56.0871 46.5 56.0871H24C20.1544 56.0871 16.4662 54.5594 13.747 51.8401C11.0277 49.1208 9.5 45.4327 9.5 41.5871V31.2051C9.5 27.3594 11.0277 23.6713 13.747 20.952C16.4662 18.2328 20.1544 16.7051 24 16.7051V16.7051Z" fill="#545AEE" stroke="white" stroke-width="2"/>
<path d="M34.653 27C32.743 27.001 30.8763 27.5683 29.2887 28.6301C27.7011 29.6919 26.464 31.2007 25.7337 32.9655C25.0035 34.7304 24.813 36.6721 25.1862 38.5453C25.5594 40.4184 26.4796 42.1388 27.8305 43.489C29.1814 44.8392 30.9023 45.7585 32.7757 46.1308C34.649 46.503 36.5906 46.3115 38.3551 45.5804C40.1196 44.8492 41.6277 43.6113 42.6887 42.0232C43.7497 40.435 44.316 38.568 44.316 36.658C44.3169 35.389 44.0676 34.1323 43.5822 32.9598C43.0969 31.7873 42.3851 30.722 41.4875 29.8249C40.59 28.9279 39.5243 28.2166 38.3516 27.7319C37.1788 27.2471 35.922 26.9984 34.653 27ZM34.653 44.384C33.1249 44.384 31.6312 43.9309 30.3607 43.0819C29.0901 42.233 28.0999 41.0264 27.5151 39.6146C26.9303 38.2029 26.7773 36.6494 27.0755 35.1507C27.3736 33.652 28.1094 32.2754 29.1899 31.1949C30.2704 30.1144 31.647 29.3786 33.1457 29.0805C34.6444 28.7824 36.1979 28.9354 37.6096 29.5201C39.0214 30.1049 40.228 31.0951 41.0769 32.3657C41.9259 33.6362 42.379 35.1299 42.379 36.658C42.3795 38.7064 41.5664 40.6711 40.1185 42.1199C38.6705 43.5688 36.7064 44.3832 34.658 44.384H34.653ZM38.033 35.692C38.3196 35.692 38.5997 35.607 38.838 35.4478C39.0763 35.2886 39.262 35.0623 39.3717 34.7975C39.4814 34.5327 39.5101 34.2414 39.4542 33.9603C39.3983 33.6792 39.2602 33.4211 39.0576 33.2184C38.855 33.0158 38.5968 32.8778 38.3157 32.8218C38.0346 32.7659 37.7433 32.7946 37.4785 32.9043C37.2137 33.014 36.9874 33.1997 36.8282 33.438C36.669 33.6763 36.584 33.9564 36.584 34.243C36.5837 34.4338 36.6212 34.6227 36.6942 34.799C36.7673 34.9752 36.8744 35.1353 37.0096 35.27C37.1447 35.4046 37.3052 35.5113 37.4816 35.5837C37.6581 35.6561 37.8472 35.6929 38.038 35.692H38.033ZM31.272 35.692C31.5586 35.692 31.8387 35.607 32.077 35.4478C32.3153 35.2886 32.501 35.0623 32.6107 34.7975C32.7204 34.5327 32.7491 34.2414 32.6932 33.9603C32.6373 33.6792 32.4992 33.4211 32.2966 33.2184C32.094 33.0158 31.8358 32.8778 31.5547 32.8218C31.2736 32.7659 30.9823 32.7946 30.7175 32.9043C30.4527 33.014 30.2264 33.1997 30.0672 33.438C29.908 33.6763 29.823 33.9564 29.823 34.243C29.8227 34.4339 29.8602 34.6229 29.9333 34.7992C30.0064 34.9755 30.1137 35.1356 30.2489 35.2703C30.3842 35.405 30.5447 35.5116 30.7213 35.584C30.898 35.6563 31.0871 35.6931 31.278 35.692H31.272ZM34.652 41.97C35.7184 41.968 36.7594 41.6443 37.639 41.0413C38.5185 40.4383 39.1957 39.584 39.582 38.59H29.728C30.1143 39.584 30.7915 40.4383 31.6711 41.0413C32.5506 41.6443 33.5916 41.968 34.658 41.97H34.652Z" fill="white"/>
<path d="M15.9078 30.7704C15.0852 30.4058 14.1517 30.3822 13.3118 30.7046C12.4718 31.0271 11.7939 31.6692 11.4266 32.4905C11.3844 32.5853 11.3463 32.6824 11.3124 32.7818C11.2208 32.7302 11.1279 32.6834 11.0322 32.6408C10.2191 32.3213 9.31407 32.3279 8.5057 32.6592C7.69734 32.9906 7.04806 33.6212 6.69322 34.4195C6.33837 35.2179 6.30534 36.1224 6.60101 36.9445C6.89668 37.7666 7.49824 38.4428 8.28028 38.8323L14.5101 41.606C14.5733 41.6341 14.6451 41.6359 14.7097 41.6111C14.7743 41.5864 14.8264 41.5369 14.8545 41.4737L17.6254 35.245C17.9897 34.4237 18.0134 33.4915 17.6915 32.6527C17.3695 31.8139 16.728 31.137 15.9078 30.7704Z" fill="#FFC432"/>
<path opacity="0.2" d="M39.5497 23.0147C29.6222 22.4944 21.3284 26.7672 21.0249 32.5583C20.7214 38.3493 28.5232 43.4657 38.4507 43.9859C48.3782 44.5062 56.672 40.2334 56.9755 34.4424C57.279 28.6513 49.4772 23.535 39.5497 23.0147Z" fill="url(#paint0_linear_1_1129)"/>
<path opacity="0.1" d="M24.448 28.1929C17.5389 35.3406 15.318 44.4021 19.4875 48.4324C23.657 52.4627 32.6379 49.9356 39.547 42.7879C46.4561 35.6403 48.677 26.5787 44.5075 22.5484C40.338 18.5181 31.3571 21.0453 24.448 28.1929Z" fill="url(#paint1_linear_1_1129)"/>
<defs>
<linearGradient id="paint0_linear_1_1129" x1="38.4507" y1="43.9859" x2="39.5497" y2="23.0147" gradientUnits="userSpaceOnUse">
<stop stop-color="white"/>
<stop offset="1" stop-color="white" stop-opacity="0"/>
</linearGradient>
<linearGradient id="paint1_linear_1_1129" x1="39.547" y1="42.7879" x2="24.448" y2="28.1929" gradientUnits="userSpaceOnUse">
<stop stop-color="white"/>
<stop offset="1" stop-color="white" stop-opacity="0"/>
</linearGradient>
</defs>
</svg>
