<svg width="70" height="70" viewBox="0 0 70 70" fill="none" xmlns="http://www.w3.org/2000/svg">
<path opacity="0.1" d="M35 70C54.33 70 70 54.33 70 35C70 15.67 54.33 0 35 0C15.67 0 0 15.67 0 35C0 54.33 15.67 70 35 70Z" fill="#474DFF"/>
<path d="M20.5 17H50C52.9174 17 55.7153 18.1589 57.7782 20.2218C59.8411 22.2847 61 25.0826 61 28V45.382C61 48.2994 59.8411 51.0973 57.7782 53.1602C55.7153 55.2231 52.9174 56.382 50 56.382H20.5C17.5826 56.382 14.7847 55.2231 12.7218 53.1602C10.6589 51.0973 9.5 48.2994 9.5 45.382V28C9.5 25.0826 10.6589 22.2847 12.7218 20.2218C14.7847 18.1589 17.5826 17 20.5 17V17Z" fill="#545AEE" stroke="white" stroke-width="2"/>
<path d="M16.182 35.332H46.533" stroke="white" stroke-width="2" stroke-linecap="round" stroke-dasharray="4 4"/>
<path d="M10.823 27.332H59.041" stroke="white" stroke-width="2" stroke-linecap="round"/>
<path d="M51 50C53.2091 50 55 48.2091 55 46C55 43.7909 53.2091 42 51 42C48.7909 42 47 43.7909 47 46C47 48.2091 48.7909 50 51 50Z" fill="white"/>
<path d="M47 42C47.7911 42 48.5645 42.2346 49.2223 42.6741C49.8801 43.1136 50.3928 43.7384 50.6955 44.4693C50.9983 45.2002 51.0775 46.0044 50.9231 46.7804C50.7688 47.5563 50.3878 48.269 49.8284 48.8284C49.269 49.3878 48.5563 49.7688 47.7804 49.9231C47.0044 50.0775 46.2002 49.9983 45.4693 49.6955C44.7384 49.3928 44.1136 48.8801 43.6741 48.2223C43.2346 47.5645 43 46.7911 43 46C43 44.9391 43.4214 43.9217 44.1716 43.1716C44.9217 42.4214 45.9391 42 47 42V42Z" fill="#FFC432"/>
</svg>
