<svg width="70" height="70" viewBox="0 0 70 70" fill="none" xmlns="http://www.w3.org/2000/svg">
<path opacity="0.1" d="M35 70C54.33 70 70 54.33 70 35C70 15.67 54.33 0 35 0C15.67 0 0 15.67 0 35C0 54.33 15.67 70 35 70Z" fill="#474DFF"/>
<path d="M45 54.383H20.5C17.5826 54.383 14.7847 53.2241 12.7218 51.1612C10.6589 49.0983 9.5 46.3004 9.5 43.383V26C9.5 23.0826 10.6589 20.2847 12.7218 18.2218C14.7847 16.1589 17.5826 15 20.5 15H50C52.9174 15 55.7153 16.1589 57.7782 18.2218C59.8411 20.2847 61 23.0826 61 26V43.382C61.0026 45.1434 60.5804 46.8795 59.769 48.443H59.781L59.748 48.481C58.9134 50.0696 57.7045 51.4311 56.226 52.448L45 65.1V54.383Z" fill="#545AEE" stroke="white" stroke-width="2"/>
<path d="M25 30C25.7911 30 26.5645 30.2346 27.2223 30.6741C27.8801 31.1136 28.3928 31.7384 28.6955 32.4693C28.9983 33.2002 29.0775 34.0044 28.9231 34.7804C28.7688 35.5563 28.3878 36.269 27.8284 36.8284C27.269 37.3878 26.5563 37.7688 25.7804 37.9231C25.0044 38.0775 24.2002 37.9983 23.4693 37.6955C22.7384 37.3928 22.1136 36.8801 21.6741 36.2223C21.2346 35.5645 21 34.7911 21 34C21 32.9391 21.4214 31.9217 22.1716 31.1716C22.9217 30.4214 23.9391 30 25 30V30Z" fill="#FFC432"/>
<path d="M37 38C39.2091 38 41 36.2091 41 34C41 31.7909 39.2091 30 37 30C34.7909 30 33 31.7909 33 34C33 36.2091 34.7909 38 37 38Z" fill="white"/>
<path d="M48 38C50.2091 38 52 36.2091 52 34C52 31.7909 50.2091 30 48 30C45.7909 30 44 31.7909 44 34C44 36.2091 45.7909 38 48 38Z" fill="white"/>
<path opacity="0.2" d="M39.5497 21.0147C29.6222 20.4944 21.3283 24.7672 21.0248 30.5583C20.7213 36.3493 28.5231 41.4657 38.4506 41.9859C48.3781 42.5062 56.672 38.2334 56.9755 32.4424C57.279 26.6513 49.4772 21.535 39.5497 21.0147Z" fill="url(#paint0_linear_1_1142)"/>
<path opacity="0.1" d="M24.448 26.1929C17.5389 33.3406 15.318 42.4021 19.4875 46.4324C23.657 50.4627 32.6379 47.9356 39.547 40.7879C46.4561 33.6403 48.677 24.5787 44.5075 20.5484C40.338 16.5181 31.3571 19.0453 24.448 26.1929Z" fill="url(#paint1_linear_1_1142)"/>
<defs>
<linearGradient id="paint0_linear_1_1142" x1="38.4506" y1="41.9859" x2="39.5497" y2="21.0147" gradientUnits="userSpaceOnUse">
<stop stop-color="white"/>
<stop offset="1" stop-color="white" stop-opacity="0"/>
</linearGradient>
<linearGradient id="paint1_linear_1_1142" x1="39.547" y1="40.7879" x2="24.448" y2="26.1929" gradientUnits="userSpaceOnUse">
<stop stop-color="white"/>
<stop offset="1" stop-color="white" stop-opacity="0"/>
</linearGradient>
</defs>
</svg>
