<svg width="70" height="70" viewBox="0 0 70 70" fill="none" xmlns="http://www.w3.org/2000/svg">
<path opacity="0.1" d="M35 70C54.33 70 70 54.33 70 35C70 15.67 54.33 0 35 0C15.67 0 0 15.67 0 35C0 54.33 15.67 70 35 70Z" fill="#474DFF"/>
<path d="M24 12.7051H46.5C50.3456 12.7051 54.0338 14.2328 56.753 16.952C59.4723 19.6713 61 23.3594 61 27.2051V37.5871C61 41.4327 59.4723 45.1208 56.753 47.8401C54.0338 50.5594 50.3456 52.0871 46.5 52.0871H24C20.1544 52.0871 16.4662 50.5594 13.747 47.8401C11.0277 45.1208 9.5 41.4327 9.5 37.5871V27.2051C9.5 23.3594 11.0277 19.6713 13.747 16.952C16.4662 14.2328 20.1544 12.7051 24 12.7051V12.7051Z" fill="#545AEE" stroke="white" stroke-width="2"/>
<path d="M40.148 44.0001C40.0792 43.9969 40.0125 43.9755 39.9547 43.938C39.8969 43.9006 39.8501 43.8485 39.819 43.7871L36.403 36.9871C37.6027 36.8657 38.7654 36.5031 39.8214 35.9211C40.8774 35.3391 41.8048 34.5496 42.548 33.6001L45.963 40.7361C45.9928 40.799 46.0052 40.8688 45.9987 40.9381C45.9923 41.0075 45.9673 41.0738 45.9264 41.1302C45.8855 41.1865 45.8301 41.2308 45.7662 41.2584C45.7023 41.286 45.6321 41.2959 45.563 41.2871L42.307 40.9271L40.5 43.8181C40.4651 43.8739 40.4167 43.92 40.3591 43.952C40.3016 43.984 40.2368 44.0009 40.171 44.0011L40.148 44.0001ZM30.5 43.8181L28.686 40.9281L25.429 41.2881C25.3603 41.2961 25.2907 41.2855 25.2275 41.2575C25.1643 41.2295 25.1097 41.185 25.0695 41.1288C25.0293 41.0725 25.0049 41.0065 24.9988 40.9376C24.9927 40.8687 25.0052 40.7995 25.035 40.7371L28.452 33.6001C29.1956 34.5498 30.1236 35.3395 31.1801 35.9215C32.2366 36.5036 33.3999 36.866 34.6 36.9871L31.184 43.7871C31.1527 43.849 31.1054 43.9013 31.047 43.9388C30.9886 43.9762 30.9213 43.9974 30.852 44.0001H30.833C30.7666 44.0006 30.7012 43.9842 30.6429 43.9523C30.5846 43.9205 30.5354 43.8743 30.5 43.8181ZM27.333 28.1291C27.3255 26.5122 27.7981 24.9295 28.6909 23.5814C29.5837 22.2334 30.8566 21.1807 32.3482 20.5567C33.8399 19.9327 35.4831 19.7656 37.0699 20.0764C38.6566 20.3872 40.1154 21.162 41.2614 22.3027C42.4074 23.4433 43.189 24.8985 43.5072 26.4837C43.8254 28.069 43.6659 29.7131 43.0489 31.2076C42.4319 32.7022 41.3851 33.9799 40.0413 34.879C38.6974 35.7781 37.1169 36.2581 35.5 36.2581C33.3398 36.2605 31.2669 35.406 29.7358 33.8821C28.2048 32.3582 27.3407 30.2892 27.333 28.1291Z" fill="white"/>
<path d="M38.971 26.4238H37.171V25.3948C37.1781 24.9604 37.0475 24.5349 36.798 24.1793C36.5485 23.8236 36.1928 23.556 35.782 23.4148C35.7046 23.3884 35.622 23.3813 35.5413 23.3942C35.4605 23.4071 35.3842 23.4396 35.319 23.4888C35.2541 23.536 35.2015 23.598 35.1657 23.6697C35.1298 23.7414 35.1118 23.8207 35.113 23.9008V25.3178L33.827 26.9638V30.9508L34.316 31.2078C34.8061 31.4419 35.3418 31.5649 35.885 31.5678H38.457C38.737 31.5651 39.0069 31.463 39.2188 31.2799C39.4306 31.0968 39.5707 30.8445 39.614 30.5678L40 27.4818V27.4528C39.9992 27.1802 39.8905 26.9189 39.6977 26.7261C39.5049 26.5333 39.2436 26.4246 38.971 26.4238Z" fill="#FFC432"/>
<path d="M33.055 26.6808H32.026C31.9917 26.6788 31.9574 26.6841 31.9253 26.6963C31.8932 26.7084 31.864 26.7273 31.8397 26.7516C31.8154 26.7759 31.7966 26.805 31.7844 26.8371C31.7722 26.8692 31.7669 26.9036 31.769 26.9378V31.3108C31.7669 31.3451 31.7722 31.3795 31.7844 31.4116C31.7966 31.4437 31.8154 31.4728 31.8397 31.4971C31.864 31.5214 31.8932 31.5402 31.9253 31.5524C31.9574 31.5646 31.9917 31.5699 32.026 31.5678H33.055C33.0893 31.5699 33.1236 31.5646 33.1557 31.5524C33.1878 31.5402 33.217 31.5214 33.2412 31.4971C33.2655 31.4728 33.2844 31.4437 33.2966 31.4116C33.3088 31.3795 33.314 31.3451 33.312 31.3108V26.9378C33.314 26.9036 33.3088 26.8692 33.2966 26.8371C33.2844 26.805 33.2655 26.7759 33.2412 26.7516C33.217 26.7273 33.1878 26.7084 33.1557 26.6963C33.1236 26.6841 33.0893 26.6788 33.055 26.6808Z" fill="#FFC432"/>
</svg>
