<svg width="75" height="70" viewBox="0 0 75 70" fill="none" xmlns="http://www.w3.org/2000/svg">
<path opacity="0.1" d="M40 70C59.33 70 75 54.33 75 35C75 15.67 59.33 0 40 0C20.67 0 5 15.67 5 35C5 54.33 20.67 70 40 70Z" fill="#474DFF"/>
<path d="M35.322 52.0871H29C25.1544 52.0871 21.4662 50.5594 18.747 47.8401C16.0277 45.1208 14.5 41.4327 14.5 37.5871V27.2051C14.5 23.3594 16.0277 19.6713 18.747 16.952C21.4662 14.2328 25.1544 12.7051 29 12.7051H51.5C55.3456 12.7051 59.0338 14.2328 61.753 16.952C64.4723 19.6713 66 23.3594 66 27.2051V37.5871C66 41.4327 64.4723 45.1208 61.753 47.8401C59.0338 50.5594 55.3456 52.0871 51.5 52.0871H45.228L40.275 57.0401L35.322 52.0871Z" fill="url(#paint0_linear_1_1115)" stroke="white" stroke-width="2"/>
<path d="M47.701 36.2942V36.9842C47.6956 37.3819 47.5352 37.7618 47.2539 38.043C46.9727 38.3243 46.5928 38.4847 46.195 38.4902H34.148C33.7503 38.4847 33.3704 38.3243 33.0891 38.043C32.8079 37.7618 32.6475 37.3819 32.642 36.9842V36.2942C32.642 34.4742 34.775 33.3452 36.783 32.4672L36.971 32.3732C37.046 32.3391 37.1283 32.3242 37.2104 32.3296C37.2926 32.335 37.3721 32.3606 37.442 32.4042C38.2418 32.9366 39.1812 33.2206 40.142 33.2202C41.1013 33.2101 42.0378 32.9271 42.842 32.4042C42.9119 32.3606 42.9915 32.335 43.0736 32.3296C43.1558 32.3242 43.238 32.3391 43.313 32.3732L43.501 32.4672C45.567 33.3452 47.701 34.4432 47.701 36.2942ZM40.171 23.4312C41.2149 23.486 42.1944 23.9529 42.8943 24.7293C43.5942 25.5057 43.9574 26.5282 43.904 27.5722C43.9574 28.6161 43.5942 29.6386 42.8943 30.415C42.1944 31.1915 41.2149 31.6583 40.171 31.7132C39.1278 31.6573 38.1494 31.19 37.4503 30.4137C36.7512 29.6374 36.3886 28.6155 36.442 27.5722C36.3886 26.5288 36.7512 25.5069 37.4503 24.7306C38.1494 23.9543 39.1278 23.487 40.171 23.4312Z" fill="white"/>
<path d="M17.154 19.8469H2.53799" stroke="#FFC432" stroke-width="5" stroke-linecap="round"/>
<path d="M17.154 27.8469H9.84599" stroke="#FFC432" stroke-width="5" stroke-linecap="round"/>
<path opacity="0.2" d="M44.5497 21.0147C34.6222 20.4944 26.3284 24.7672 26.0249 30.5583C25.7214 36.3493 33.5232 41.4657 43.4507 41.9859C53.3782 42.5062 61.672 38.2334 61.9755 32.4424C62.279 26.6513 54.4772 21.535 44.5497 21.0147Z" fill="url(#paint1_linear_1_1115)"/>
<path opacity="0.1" d="M29.448 26.1929C22.5389 33.3406 20.318 42.4021 24.4875 46.4324C28.657 50.4627 37.6379 47.9356 44.547 40.7879C51.4561 33.6403 53.677 24.5787 49.5075 20.5484C45.338 16.5181 36.3571 19.0453 29.448 26.1929Z" fill="url(#paint2_linear_1_1115)"/>
<defs>
<linearGradient id="paint0_linear_1_1115" x1="40.25" y1="12.7051" x2="40.25" y2="57.0401" gradientUnits="userSpaceOnUse">
<stop stop-color="#545AEE"/>
<stop offset="1" stop-color="#3B43FF"/>
</linearGradient>
<linearGradient id="paint1_linear_1_1115" x1="43.4507" y1="41.9859" x2="44.5497" y2="21.0147" gradientUnits="userSpaceOnUse">
<stop stop-color="white"/>
<stop offset="1" stop-color="white" stop-opacity="0"/>
</linearGradient>
<linearGradient id="paint2_linear_1_1115" x1="44.547" y1="40.7879" x2="29.448" y2="26.1929" gradientUnits="userSpaceOnUse">
<stop stop-color="white"/>
<stop offset="1" stop-color="white" stop-opacity="0"/>
</linearGradient>
</defs>
</svg>
