<svg width="55" height="53" viewBox="0 0 55 53" fill="none" xmlns="http://www.w3.org/2000/svg">
<path d="M34.3961 34.6744C33.9968 34.0485 33.7729 33.3269 33.7479 32.5849C33.6596 31.8224 33.6446 31.0432 33.5047 30.2893C33.2238 28.7721 32.3234 28.3981 31.0005 29.2215C30.601 29.4902 30.2157 29.7796 29.8462 30.0883C29.3245 30.5164 28.7539 30.8811 28.1462 31.1747C27.7769 31.3846 27.3635 31.5047 26.9393 31.5255C26.515 31.5463 26.0919 31.4671 25.7038 31.2943C25.3158 31.1216 24.9738 30.8601 24.7053 30.531C24.4369 30.2018 24.2495 29.8142 24.1583 29.3994C23.9879 28.6983 23.883 27.983 23.8451 27.2626C23.7271 26.2833 23.9439 25.0779 22.8555 24.5627C21.7422 24.0365 20.9841 25.0011 20.1984 25.5924C19.5972 26.0747 18.9461 26.4913 18.2563 26.8351C17.9033 27.0235 17.5128 27.131 17.1131 27.1495C16.7133 27.1681 16.3145 27.0974 15.9455 26.9425C15.5766 26.7877 15.2468 26.5526 14.9801 26.2543C14.7133 25.956 14.5164 25.602 14.4036 25.2181C14.1751 24.4317 14.0492 23.619 14.0294 22.8002C14.085 21.9288 13.8444 21.0641 13.3466 20.3467C13.0638 20.032 13.207 19.7182 13.3445 19.4102C13.5418 18.969 13.8177 18.8219 14.2245 19.1945C14.8098 19.7079 15.1937 20.4125 15.3077 21.1826C15.4057 21.8487 15.442 22.5237 15.524 23.1921C15.56 23.6714 15.6364 24.1467 15.7525 24.6131C15.7827 24.8184 15.8634 25.0131 15.9872 25.1797C16.111 25.3464 16.2741 25.4797 16.462 25.5679C16.6499 25.6561 16.8567 25.6965 17.064 25.6853C17.2713 25.6741 17.4725 25.6118 17.6499 25.5039C18.1798 25.2712 18.6744 24.9653 19.1193 24.5952C19.5995 24.1936 20.104 23.8221 20.63 23.4827C21.0199 23.1887 21.4803 23.0025 21.965 22.9428C22.4496 22.8831 22.9414 22.952 23.391 23.1425C23.8406 23.333 24.2322 23.6385 24.5263 24.0283C24.8205 24.418 25.0069 24.8784 25.0668 25.363C25.2378 26.1079 25.2446 26.8896 25.3421 27.6526C25.4503 28.5024 25.3664 29.496 26.3054 29.921C27.2445 30.346 27.9487 29.6635 28.6524 29.1718C29.2049 28.7856 29.7054 28.3232 30.2739 27.9639C32.4175 26.6119 34.4659 27.4799 34.9343 29.9613C35.1046 30.8565 35.1038 31.7827 35.2359 32.6874C35.4939 34.4612 36.4529 34.9036 37.9442 33.927C38.5872 33.5055 39.1657 32.9886 39.7916 32.5387C40.4362 32.0225 41.2329 31.733 42.0586 31.7148C42.3788 31.7184 42.8413 31.6654 42.9208 32.0399C43.0146 32.4668 42.7742 33.0915 42.3894 33.1092C40.7691 33.1786 39.8793 34.4455 38.6785 35.1912C36.9478 36.2674 35.4424 36.1201 34.3961 34.6744Z" fill="#FFCC00"/>
<path d="M52.2636 23.7868C52.1501 23.8235 51.9711 23.8885 51.7875 23.9394C50.5839 24.2658 49.3709 24.559 48.1792 24.9281C47.5659 25.1181 47.298 24.9378 47.1471 24.3549C46.8293 23.099 46.5017 21.8469 46.1419 20.6021C45.9915 20.0849 46.0783 19.8127 46.6475 19.6737C47.9053 19.3646 49.1519 19.0121 50.3942 18.6492C50.943 18.4905 51.2761 18.5513 51.429 19.1999C51.7263 20.4604 52.1015 21.702 52.4312 22.9537C52.5066 23.2223 52.6354 23.5203 52.2636 23.7868Z" fill="#FFCC00"/>
<path d="M14.8425 37.328C15.1168 37.6851 15.3181 38.0927 15.4349 38.5275C15.5517 38.9624 15.5816 39.416 15.5231 39.8625C15.4646 40.3089 15.3187 40.7395 15.0938 41.1296C14.8688 41.5196 14.5693 41.8616 14.2122 42.1359C13.8551 42.4102 13.4475 42.6115 13.0126 42.7283C12.5778 42.845 12.1241 42.875 11.6777 42.8165C11.2312 42.758 10.8007 42.6121 10.4106 42.3871C10.0205 42.1622 9.67856 41.8627 9.40426 41.5056C9.11382 41.1498 8.90012 40.7378 8.77658 40.2955C8.65305 39.8532 8.62234 39.39 8.68642 38.9353C8.7505 38.4805 8.90796 38.0439 9.14891 37.6529C9.38986 37.262 9.7091 36.925 10.0865 36.6634C10.4416 36.3924 10.8468 36.1946 11.2788 36.0813C11.7107 35.968 12.1609 35.9414 12.6032 36.0032C13.0455 36.0651 13.4712 36.214 13.8555 36.4413C14.2399 36.6687 14.5754 36.9701 14.8425 37.328ZM13.3758 40.954C13.579 40.7863 13.7469 40.5799 13.8696 40.3467C13.9924 40.1136 14.0675 39.8584 14.0907 39.596C14.1139 39.3335 14.0847 39.0691 14.0048 38.8181C13.9248 38.567 13.7958 38.3344 13.6251 38.1336C13.2981 37.7448 12.8327 37.4983 12.3273 37.4464C11.8218 37.3945 11.316 37.5411 10.9167 37.8553C10.7035 38.0105 10.5244 38.2078 10.3905 38.435C10.2566 38.6622 10.1708 38.9145 10.1383 39.1762C10.1059 39.438 10.1275 39.7035 10.2018 39.9566C10.2761 40.2096 10.4016 40.4447 10.5704 40.6473C10.7313 40.856 10.9327 41.0301 11.1625 41.1591C11.3923 41.288 11.6458 41.3693 11.9078 41.3979C12.1698 41.4265 12.4349 41.402 12.6871 41.3257C12.9394 41.2494 13.1736 41.123 13.3758 40.954Z" fill="#FFCC00"/>
</svg>
