<svg width="183" height="502" viewBox="0 0 183 502" fill="none" xmlns="http://www.w3.org/2000/svg">
<path d="M4.5 9C6.98528 9 9 6.98528 9 4.5C9 2.01472 6.98528 0 4.5 0C2.01472 0 0 2.01472 0 4.5C0 6.98528 2.01472 9 4.5 9Z" fill="#EFF0FE"/>
<path d="M33.5 9C35.9853 9 38 6.98528 38 4.5C38 2.01472 35.9853 0 33.5 0C31.0147 0 29 2.01472 29 4.5C29 6.98528 31.0147 9 33.5 9Z" fill="#EFF0FE"/>
<path d="M62.5 9C64.9853 9 67 6.98528 67 4.5C67 2.01472 64.9853 0 62.5 0C60.0147 0 58 2.01472 58 4.5C58 6.98528 60.0147 9 62.5 9Z" fill="#EFF0FE"/>
<path d="M91.5 9C93.9853 9 96 6.98528 96 4.5C96 2.01472 93.9853 0 91.5 0C89.0147 0 87 2.01472 87 4.5C87 6.98528 89.0147 9 91.5 9Z" fill="#EFF0FE"/>
<path d="M120.5 9C122.985 9 125 6.98528 125 4.5C125 2.01472 122.985 0 120.5 0C118.015 0 116 2.01472 116 4.5C116 6.98528 118.015 9 120.5 9Z" fill="#EFF0FE"/>
<path d="M149.5 9C151.985 9 154 6.98528 154 4.5C154 2.01472 151.985 0 149.5 0C147.015 0 145 2.01472 145 4.5C145 6.98528 147.015 9 149.5 9Z" fill="#EFF0FE"/>
<path d="M178.5 9C180.985 9 183 6.98528 183 4.5C183 2.01472 180.985 0 178.5 0C176.015 0 174 2.01472 174 4.5C174 6.98528 176.015 9 178.5 9Z" fill="#EFF0FE"/>
<path d="M4.5 38C6.98528 38 9 35.9853 9 33.5C9 31.0147 6.98528 29 4.5 29C2.01472 29 0 31.0147 0 33.5C0 35.9853 2.01472 38 4.5 38Z" fill="#EFF0FE"/>
<path d="M33.5 38C35.9853 38 38 35.9853 38 33.5C38 31.0147 35.9853 29 33.5 29C31.0147 29 29 31.0147 29 33.5C29 35.9853 31.0147 38 33.5 38Z" fill="#EFF0FE"/>
<path d="M62.5 38C64.9853 38 67 35.9853 67 33.5C67 31.0147 64.9853 29 62.5 29C60.0147 29 58 31.0147 58 33.5C58 35.9853 60.0147 38 62.5 38Z" fill="#EFF0FE"/>
<path d="M91.5 38C93.9853 38 96 35.9853 96 33.5C96 31.0147 93.9853 29 91.5 29C89.0147 29 87 31.0147 87 33.5C87 35.9853 89.0147 38 91.5 38Z" fill="#EFF0FE"/>
<path d="M120.5 38C122.985 38 125 35.9853 125 33.5C125 31.0147 122.985 29 120.5 29C118.015 29 116 31.0147 116 33.5C116 35.9853 118.015 38 120.5 38Z" fill="#EFF0FE"/>
<path d="M149.5 38C151.985 38 154 35.9853 154 33.5C154 31.0147 151.985 29 149.5 29C147.015 29 145 31.0147 145 33.5C145 35.9853 147.015 38 149.5 38Z" fill="#EFF0FE"/>
<path d="M178.5 38C180.985 38 183 35.9853 183 33.5C183 31.0147 180.985 29 178.5 29C176.015 29 174 31.0147 174 33.5C174 35.9853 176.015 38 178.5 38Z" fill="#EFF0FE"/>
<path d="M4.5 67C6.98528 67 9 64.9853 9 62.5C9 60.0147 6.98528 58 4.5 58C2.01472 58 0 60.0147 0 62.5C0 64.9853 2.01472 67 4.5 67Z" fill="#EFF0FE"/>
<path d="M33.5 67C35.9853 67 38 64.9853 38 62.5C38 60.0147 35.9853 58 33.5 58C31.0147 58 29 60.0147 29 62.5C29 64.9853 31.0147 67 33.5 67Z" fill="#EFF0FE"/>
<path d="M62.5 67C64.9853 67 67 64.9853 67 62.5C67 60.0147 64.9853 58 62.5 58C60.0147 58 58 60.0147 58 62.5C58 64.9853 60.0147 67 62.5 67Z" fill="#EFF0FE"/>
<path d="M91.5 67C93.9853 67 96 64.9853 96 62.5C96 60.0147 93.9853 58 91.5 58C89.0147 58 87 60.0147 87 62.5C87 64.9853 89.0147 67 91.5 67Z" fill="#EFF0FE"/>
<path d="M120.5 67C122.985 67 125 64.9853 125 62.5C125 60.0147 122.985 58 120.5 58C118.015 58 116 60.0147 116 62.5C116 64.9853 118.015 67 120.5 67Z" fill="#EFF0FE"/>
<path d="M149.5 67C151.985 67 154 64.9853 154 62.5C154 60.0147 151.985 58 149.5 58C147.015 58 145 60.0147 145 62.5C145 64.9853 147.015 67 149.5 67Z" fill="#EFF0FE"/>
<path d="M178.5 67C180.985 67 183 64.9853 183 62.5C183 60.0147 180.985 58 178.5 58C176.015 58 174 60.0147 174 62.5C174 64.9853 176.015 67 178.5 67Z" fill="#EFF0FE"/>
<path d="M4.5 96C6.98528 96 9 93.9853 9 91.5C9 89.0147 6.98528 87 4.5 87C2.01472 87 0 89.0147 0 91.5C0 93.9853 2.01472 96 4.5 96Z" fill="#EFF0FE"/>
<path d="M33.5 96C35.9853 96 38 93.9853 38 91.5C38 89.0147 35.9853 87 33.5 87C31.0147 87 29 89.0147 29 91.5C29 93.9853 31.0147 96 33.5 96Z" fill="#EFF0FE"/>
<path d="M62.5 96C64.9853 96 67 93.9853 67 91.5C67 89.0147 64.9853 87 62.5 87C60.0147 87 58 89.0147 58 91.5C58 93.9853 60.0147 96 62.5 96Z" fill="#EFF0FE"/>
<path d="M91.5 96C93.9853 96 96 93.9853 96 91.5C96 89.0147 93.9853 87 91.5 87C89.0147 87 87 89.0147 87 91.5C87 93.9853 89.0147 96 91.5 96Z" fill="#EFF0FE"/>
<path d="M120.5 96C122.985 96 125 93.9853 125 91.5C125 89.0147 122.985 87 120.5 87C118.015 87 116 89.0147 116 91.5C116 93.9853 118.015 96 120.5 96Z" fill="#EFF0FE"/>
<path d="M149.5 96C151.985 96 154 93.9853 154 91.5C154 89.0147 151.985 87 149.5 87C147.015 87 145 89.0147 145 91.5C145 93.9853 147.015 96 149.5 96Z" fill="#EFF0FE"/>
<path d="M178.5 96C180.985 96 183 93.9853 183 91.5C183 89.0147 180.985 87 178.5 87C176.015 87 174 89.0147 174 91.5C174 93.9853 176.015 96 178.5 96Z" fill="#EFF0FE"/>
<path d="M4.5 125C6.98528 125 9 122.985 9 120.5C9 118.015 6.98528 116 4.5 116C2.01472 116 0 118.015 0 120.5C0 122.985 2.01472 125 4.5 125Z" fill="#EFF0FE"/>
<path d="M33.5 125C35.9853 125 38 122.985 38 120.5C38 118.015 35.9853 116 33.5 116C31.0147 116 29 118.015 29 120.5C29 122.985 31.0147 125 33.5 125Z" fill="#EFF0FE"/>
<path d="M62.5 125C64.9853 125 67 122.985 67 120.5C67 118.015 64.9853 116 62.5 116C60.0147 116 58 118.015 58 120.5C58 122.985 60.0147 125 62.5 125Z" fill="#EFF0FE"/>
<path d="M91.5 125C93.9853 125 96 122.985 96 120.5C96 118.015 93.9853 116 91.5 116C89.0147 116 87 118.015 87 120.5C87 122.985 89.0147 125 91.5 125Z" fill="#EFF0FE"/>
<path d="M120.5 125C122.985 125 125 122.985 125 120.5C125 118.015 122.985 116 120.5 116C118.015 116 116 118.015 116 120.5C116 122.985 118.015 125 120.5 125Z" fill="#EFF0FE"/>
<path d="M149.5 125C151.985 125 154 122.985 154 120.5C154 118.015 151.985 116 149.5 116C147.015 116 145 118.015 145 120.5C145 122.985 147.015 125 149.5 125Z" fill="#EFF0FE"/>
<path d="M178.5 125C180.985 125 183 122.985 183 120.5C183 118.015 180.985 116 178.5 116C176.015 116 174 118.015 174 120.5C174 122.985 176.015 125 178.5 125Z" fill="#EFF0FE"/>
<path d="M4.5 154C6.98528 154 9 151.985 9 149.5C9 147.015 6.98528 145 4.5 145C2.01472 145 0 147.015 0 149.5C0 151.985 2.01472 154 4.5 154Z" fill="#EFF0FE"/>
<path d="M33.5 154C35.9853 154 38 151.985 38 149.5C38 147.015 35.9853 145 33.5 145C31.0147 145 29 147.015 29 149.5C29 151.985 31.0147 154 33.5 154Z" fill="#EFF0FE"/>
<path d="M62.5 154C64.9853 154 67 151.985 67 149.5C67 147.015 64.9853 145 62.5 145C60.0147 145 58 147.015 58 149.5C58 151.985 60.0147 154 62.5 154Z" fill="#EFF0FE"/>
<path d="M91.5 154C93.9853 154 96 151.985 96 149.5C96 147.015 93.9853 145 91.5 145C89.0147 145 87 147.015 87 149.5C87 151.985 89.0147 154 91.5 154Z" fill="#EFF0FE"/>
<path d="M120.5 154C122.985 154 125 151.985 125 149.5C125 147.015 122.985 145 120.5 145C118.015 145 116 147.015 116 149.5C116 151.985 118.015 154 120.5 154Z" fill="#EFF0FE"/>
<path d="M149.5 154C151.985 154 154 151.985 154 149.5C154 147.015 151.985 145 149.5 145C147.015 145 145 147.015 145 149.5C145 151.985 147.015 154 149.5 154Z" fill="#EFF0FE"/>
<path d="M178.5 154C180.985 154 183 151.985 183 149.5C183 147.015 180.985 145 178.5 145C176.015 145 174 147.015 174 149.5C174 151.985 176.015 154 178.5 154Z" fill="#EFF0FE"/>
<path d="M4.5 183C6.98528 183 9 180.985 9 178.5C9 176.015 6.98528 174 4.5 174C2.01472 174 0 176.015 0 178.5C0 180.985 2.01472 183 4.5 183Z" fill="#EFF0FE"/>
<path d="M33.5 183C35.9853 183 38 180.985 38 178.5C38 176.015 35.9853 174 33.5 174C31.0147 174 29 176.015 29 178.5C29 180.985 31.0147 183 33.5 183Z" fill="#EFF0FE"/>
<path d="M62.5 183C64.9853 183 67 180.985 67 178.5C67 176.015 64.9853 174 62.5 174C60.0147 174 58 176.015 58 178.5C58 180.985 60.0147 183 62.5 183Z" fill="#EFF0FE"/>
<path d="M91.5 183C93.9853 183 96 180.985 96 178.5C96 176.015 93.9853 174 91.5 174C89.0147 174 87 176.015 87 178.5C87 180.985 89.0147 183 91.5 183Z" fill="#EFF0FE"/>
<path d="M120.5 183C122.985 183 125 180.985 125 178.5C125 176.015 122.985 174 120.5 174C118.015 174 116 176.015 116 178.5C116 180.985 118.015 183 120.5 183Z" fill="#EFF0FE"/>
<path d="M149.5 183C151.985 183 154 180.985 154 178.5C154 176.015 151.985 174 149.5 174C147.015 174 145 176.015 145 178.5C145 180.985 147.015 183 149.5 183Z" fill="#EFF0FE"/>
<path d="M178.5 183C180.985 183 183 180.985 183 178.5C183 176.015 180.985 174 178.5 174C176.015 174 174 176.015 174 178.5C174 180.985 176.015 183 178.5 183Z" fill="#EFF0FE"/>
<path d="M4.5 212C6.98528 212 9 209.985 9 207.5C9 205.015 6.98528 203 4.5 203C2.01472 203 0 205.015 0 207.5C0 209.985 2.01472 212 4.5 212Z" fill="#EFF0FE"/>
<path d="M33.5 212C35.9853 212 38 209.985 38 207.5C38 205.015 35.9853 203 33.5 203C31.0147 203 29 205.015 29 207.5C29 209.985 31.0147 212 33.5 212Z" fill="#EFF0FE"/>
<path d="M62.5 212C64.9853 212 67 209.985 67 207.5C67 205.015 64.9853 203 62.5 203C60.0147 203 58 205.015 58 207.5C58 209.985 60.0147 212 62.5 212Z" fill="#EFF0FE"/>
<path d="M91.5 212C93.9853 212 96 209.985 96 207.5C96 205.015 93.9853 203 91.5 203C89.0147 203 87 205.015 87 207.5C87 209.985 89.0147 212 91.5 212Z" fill="#EFF0FE"/>
<path d="M120.5 212C122.985 212 125 209.985 125 207.5C125 205.015 122.985 203 120.5 203C118.015 203 116 205.015 116 207.5C116 209.985 118.015 212 120.5 212Z" fill="#EFF0FE"/>
<path d="M149.5 212C151.985 212 154 209.985 154 207.5C154 205.015 151.985 203 149.5 203C147.015 203 145 205.015 145 207.5C145 209.985 147.015 212 149.5 212Z" fill="#EFF0FE"/>
<path d="M178.5 212C180.985 212 183 209.985 183 207.5C183 205.015 180.985 203 178.5 203C176.015 203 174 205.015 174 207.5C174 209.985 176.015 212 178.5 212Z" fill="#EFF0FE"/>
<path d="M4.5 241C6.98528 241 9 238.985 9 236.5C9 234.015 6.98528 232 4.5 232C2.01472 232 0 234.015 0 236.5C0 238.985 2.01472 241 4.5 241Z" fill="#EFF0FE"/>
<path d="M33.5 241C35.9853 241 38 238.985 38 236.5C38 234.015 35.9853 232 33.5 232C31.0147 232 29 234.015 29 236.5C29 238.985 31.0147 241 33.5 241Z" fill="#EFF0FE"/>
<path d="M62.5 241C64.9853 241 67 238.985 67 236.5C67 234.015 64.9853 232 62.5 232C60.0147 232 58 234.015 58 236.5C58 238.985 60.0147 241 62.5 241Z" fill="#EFF0FE"/>
<path d="M91.5 241C93.9853 241 96 238.985 96 236.5C96 234.015 93.9853 232 91.5 232C89.0147 232 87 234.015 87 236.5C87 238.985 89.0147 241 91.5 241Z" fill="#EFF0FE"/>
<path d="M120.5 241C122.985 241 125 238.985 125 236.5C125 234.015 122.985 232 120.5 232C118.015 232 116 234.015 116 236.5C116 238.985 118.015 241 120.5 241Z" fill="#EFF0FE"/>
<path d="M149.5 241C151.985 241 154 238.985 154 236.5C154 234.015 151.985 232 149.5 232C147.015 232 145 234.015 145 236.5C145 238.985 147.015 241 149.5 241Z" fill="#EFF0FE"/>
<path d="M178.5 241C180.985 241 183 238.985 183 236.5C183 234.015 180.985 232 178.5 232C176.015 232 174 234.015 174 236.5C174 238.985 176.015 241 178.5 241Z" fill="#EFF0FE"/>
<path d="M4.5 270C6.98528 270 9 267.985 9 265.5C9 263.015 6.98528 261 4.5 261C2.01472 261 0 263.015 0 265.5C0 267.985 2.01472 270 4.5 270Z" fill="#EFF0FE"/>
<path d="M33.5 270C35.9853 270 38 267.985 38 265.5C38 263.015 35.9853 261 33.5 261C31.0147 261 29 263.015 29 265.5C29 267.985 31.0147 270 33.5 270Z" fill="#EFF0FE"/>
<path d="M62.5 270C64.9853 270 67 267.985 67 265.5C67 263.015 64.9853 261 62.5 261C60.0147 261 58 263.015 58 265.5C58 267.985 60.0147 270 62.5 270Z" fill="#EFF0FE"/>
<path d="M91.5 270C93.9853 270 96 267.985 96 265.5C96 263.015 93.9853 261 91.5 261C89.0147 261 87 263.015 87 265.5C87 267.985 89.0147 270 91.5 270Z" fill="#EFF0FE"/>
<path d="M120.5 270C122.985 270 125 267.985 125 265.5C125 263.015 122.985 261 120.5 261C118.015 261 116 263.015 116 265.5C116 267.985 118.015 270 120.5 270Z" fill="#EFF0FE"/>
<path d="M149.5 270C151.985 270 154 267.985 154 265.5C154 263.015 151.985 261 149.5 261C147.015 261 145 263.015 145 265.5C145 267.985 147.015 270 149.5 270Z" fill="#EFF0FE"/>
<path d="M178.5 270C180.985 270 183 267.985 183 265.5C183 263.015 180.985 261 178.5 261C176.015 261 174 263.015 174 265.5C174 267.985 176.015 270 178.5 270Z" fill="#EFF0FE"/>
<path d="M4.5 299C6.98528 299 9 296.985 9 294.5C9 292.015 6.98528 290 4.5 290C2.01472 290 0 292.015 0 294.5C0 296.985 2.01472 299 4.5 299Z" fill="#EFF0FE"/>
<path d="M33.5 299C35.9853 299 38 296.985 38 294.5C38 292.015 35.9853 290 33.5 290C31.0147 290 29 292.015 29 294.5C29 296.985 31.0147 299 33.5 299Z" fill="#EFF0FE"/>
<path d="M62.5 299C64.9853 299 67 296.985 67 294.5C67 292.015 64.9853 290 62.5 290C60.0147 290 58 292.015 58 294.5C58 296.985 60.0147 299 62.5 299Z" fill="#EFF0FE"/>
<path d="M91.5 299C93.9853 299 96 296.985 96 294.5C96 292.015 93.9853 290 91.5 290C89.0147 290 87 292.015 87 294.5C87 296.985 89.0147 299 91.5 299Z" fill="#EFF0FE"/>
<path d="M120.5 299C122.985 299 125 296.985 125 294.5C125 292.015 122.985 290 120.5 290C118.015 290 116 292.015 116 294.5C116 296.985 118.015 299 120.5 299Z" fill="#EFF0FE"/>
<path d="M149.5 299C151.985 299 154 296.985 154 294.5C154 292.015 151.985 290 149.5 290C147.015 290 145 292.015 145 294.5C145 296.985 147.015 299 149.5 299Z" fill="#EFF0FE"/>
<path d="M178.5 299C180.985 299 183 296.985 183 294.5C183 292.015 180.985 290 178.5 290C176.015 290 174 292.015 174 294.5C174 296.985 176.015 299 178.5 299Z" fill="#EFF0FE"/>
<path d="M4.5 328C6.98528 328 9 325.985 9 323.5C9 321.015 6.98528 319 4.5 319C2.01472 319 0 321.015 0 323.5C0 325.985 2.01472 328 4.5 328Z" fill="#EFF0FE"/>
<path d="M33.5 328C35.9853 328 38 325.985 38 323.5C38 321.015 35.9853 319 33.5 319C31.0147 319 29 321.015 29 323.5C29 325.985 31.0147 328 33.5 328Z" fill="#EFF0FE"/>
<path d="M62.5 328C64.9853 328 67 325.985 67 323.5C67 321.015 64.9853 319 62.5 319C60.0147 319 58 321.015 58 323.5C58 325.985 60.0147 328 62.5 328Z" fill="#EFF0FE"/>
<path d="M91.5 328C93.9853 328 96 325.985 96 323.5C96 321.015 93.9853 319 91.5 319C89.0147 319 87 321.015 87 323.5C87 325.985 89.0147 328 91.5 328Z" fill="#EFF0FE"/>
<path d="M120.5 328C122.985 328 125 325.985 125 323.5C125 321.015 122.985 319 120.5 319C118.015 319 116 321.015 116 323.5C116 325.985 118.015 328 120.5 328Z" fill="#EFF0FE"/>
<path d="M149.5 328C151.985 328 154 325.985 154 323.5C154 321.015 151.985 319 149.5 319C147.015 319 145 321.015 145 323.5C145 325.985 147.015 328 149.5 328Z" fill="#EFF0FE"/>
<path d="M178.5 328C180.985 328 183 325.985 183 323.5C183 321.015 180.985 319 178.5 319C176.015 319 174 321.015 174 323.5C174 325.985 176.015 328 178.5 328Z" fill="#EFF0FE"/>
<path d="M4.5 357C6.98528 357 9 354.985 9 352.5C9 350.015 6.98528 348 4.5 348C2.01472 348 0 350.015 0 352.5C0 354.985 2.01472 357 4.5 357Z" fill="#EFF0FE"/>
<path d="M33.5 357C35.9853 357 38 354.985 38 352.5C38 350.015 35.9853 348 33.5 348C31.0147 348 29 350.015 29 352.5C29 354.985 31.0147 357 33.5 357Z" fill="#EFF0FE"/>
<path d="M62.5 357C64.9853 357 67 354.985 67 352.5C67 350.015 64.9853 348 62.5 348C60.0147 348 58 350.015 58 352.5C58 354.985 60.0147 357 62.5 357Z" fill="#EFF0FE"/>
<path d="M91.5 357C93.9853 357 96 354.985 96 352.5C96 350.015 93.9853 348 91.5 348C89.0147 348 87 350.015 87 352.5C87 354.985 89.0147 357 91.5 357Z" fill="#EFF0FE"/>
<path d="M120.5 357C122.985 357 125 354.985 125 352.5C125 350.015 122.985 348 120.5 348C118.015 348 116 350.015 116 352.5C116 354.985 118.015 357 120.5 357Z" fill="#EFF0FE"/>
<path d="M149.5 357C151.985 357 154 354.985 154 352.5C154 350.015 151.985 348 149.5 348C147.015 348 145 350.015 145 352.5C145 354.985 147.015 357 149.5 357Z" fill="#EFF0FE"/>
<path d="M178.5 357C180.985 357 183 354.985 183 352.5C183 350.015 180.985 348 178.5 348C176.015 348 174 350.015 174 352.5C174 354.985 176.015 357 178.5 357Z" fill="#EFF0FE"/>
<path d="M4.5 386C6.98528 386 9 383.985 9 381.5C9 379.015 6.98528 377 4.5 377C2.01472 377 0 379.015 0 381.5C0 383.985 2.01472 386 4.5 386Z" fill="#EFF0FE"/>
<path d="M33.5 386C35.9853 386 38 383.985 38 381.5C38 379.015 35.9853 377 33.5 377C31.0147 377 29 379.015 29 381.5C29 383.985 31.0147 386 33.5 386Z" fill="#EFF0FE"/>
<path d="M62.5 386C64.9853 386 67 383.985 67 381.5C67 379.015 64.9853 377 62.5 377C60.0147 377 58 379.015 58 381.5C58 383.985 60.0147 386 62.5 386Z" fill="#EFF0FE"/>
<path d="M91.5 386C93.9853 386 96 383.985 96 381.5C96 379.015 93.9853 377 91.5 377C89.0147 377 87 379.015 87 381.5C87 383.985 89.0147 386 91.5 386Z" fill="#EFF0FE"/>
<path d="M120.5 386C122.985 386 125 383.985 125 381.5C125 379.015 122.985 377 120.5 377C118.015 377 116 379.015 116 381.5C116 383.985 118.015 386 120.5 386Z" fill="#EFF0FE"/>
<path d="M149.5 386C151.985 386 154 383.985 154 381.5C154 379.015 151.985 377 149.5 377C147.015 377 145 379.015 145 381.5C145 383.985 147.015 386 149.5 386Z" fill="#EFF0FE"/>
<path d="M178.5 386C180.985 386 183 383.985 183 381.5C183 379.015 180.985 377 178.5 377C176.015 377 174 379.015 174 381.5C174 383.985 176.015 386 178.5 386Z" fill="#EFF0FE"/>
<path d="M4.5 415C6.98528 415 9 412.985 9 410.5C9 408.015 6.98528 406 4.5 406C2.01472 406 0 408.015 0 410.5C0 412.985 2.01472 415 4.5 415Z" fill="#EFF0FE"/>
<path d="M33.5 415C35.9853 415 38 412.985 38 410.5C38 408.015 35.9853 406 33.5 406C31.0147 406 29 408.015 29 410.5C29 412.985 31.0147 415 33.5 415Z" fill="#EFF0FE"/>
<path d="M62.5 415C64.9853 415 67 412.985 67 410.5C67 408.015 64.9853 406 62.5 406C60.0147 406 58 408.015 58 410.5C58 412.985 60.0147 415 62.5 415Z" fill="#EFF0FE"/>
<path d="M91.5 415C93.9853 415 96 412.985 96 410.5C96 408.015 93.9853 406 91.5 406C89.0147 406 87 408.015 87 410.5C87 412.985 89.0147 415 91.5 415Z" fill="#EFF0FE"/>
<path d="M120.5 415C122.985 415 125 412.985 125 410.5C125 408.015 122.985 406 120.5 406C118.015 406 116 408.015 116 410.5C116 412.985 118.015 415 120.5 415Z" fill="#EFF0FE"/>
<path d="M149.5 415C151.985 415 154 412.985 154 410.5C154 408.015 151.985 406 149.5 406C147.015 406 145 408.015 145 410.5C145 412.985 147.015 415 149.5 415Z" fill="#EFF0FE"/>
<path d="M178.5 415C180.985 415 183 412.985 183 410.5C183 408.015 180.985 406 178.5 406C176.015 406 174 408.015 174 410.5C174 412.985 176.015 415 178.5 415Z" fill="#EFF0FE"/>
<path d="M4.5 444C6.98528 444 9 441.985 9 439.5C9 437.015 6.98528 435 4.5 435C2.01472 435 0 437.015 0 439.5C0 441.985 2.01472 444 4.5 444Z" fill="#EFF0FE"/>
<path d="M33.5 444C35.9853 444 38 441.985 38 439.5C38 437.015 35.9853 435 33.5 435C31.0147 435 29 437.015 29 439.5C29 441.985 31.0147 444 33.5 444Z" fill="#EFF0FE"/>
<path d="M62.5 444C64.9853 444 67 441.985 67 439.5C67 437.015 64.9853 435 62.5 435C60.0147 435 58 437.015 58 439.5C58 441.985 60.0147 444 62.5 444Z" fill="#EFF0FE"/>
<path d="M91.5 444C93.9853 444 96 441.985 96 439.5C96 437.015 93.9853 435 91.5 435C89.0147 435 87 437.015 87 439.5C87 441.985 89.0147 444 91.5 444Z" fill="#EFF0FE"/>
<path d="M120.5 444C122.985 444 125 441.985 125 439.5C125 437.015 122.985 435 120.5 435C118.015 435 116 437.015 116 439.5C116 441.985 118.015 444 120.5 444Z" fill="#EFF0FE"/>
<path d="M149.5 444C151.985 444 154 441.985 154 439.5C154 437.015 151.985 435 149.5 435C147.015 435 145 437.015 145 439.5C145 441.985 147.015 444 149.5 444Z" fill="#EFF0FE"/>
<path d="M178.5 444C180.985 444 183 441.985 183 439.5C183 437.015 180.985 435 178.5 435C176.015 435 174 437.015 174 439.5C174 441.985 176.015 444 178.5 444Z" fill="#EFF0FE"/>
<path d="M4.5 473C6.98528 473 9 470.985 9 468.5C9 466.015 6.98528 464 4.5 464C2.01472 464 0 466.015 0 468.5C0 470.985 2.01472 473 4.5 473Z" fill="#EFF0FE"/>
<path d="M33.5 473C35.9853 473 38 470.985 38 468.5C38 466.015 35.9853 464 33.5 464C31.0147 464 29 466.015 29 468.5C29 470.985 31.0147 473 33.5 473Z" fill="#EFF0FE"/>
<path d="M62.5 473C64.9853 473 67 470.985 67 468.5C67 466.015 64.9853 464 62.5 464C60.0147 464 58 466.015 58 468.5C58 470.985 60.0147 473 62.5 473Z" fill="#EFF0FE"/>
<path d="M91.5 473C93.9853 473 96 470.985 96 468.5C96 466.015 93.9853 464 91.5 464C89.0147 464 87 466.015 87 468.5C87 470.985 89.0147 473 91.5 473Z" fill="#EFF0FE"/>
<path d="M120.5 473C122.985 473 125 470.985 125 468.5C125 466.015 122.985 464 120.5 464C118.015 464 116 466.015 116 468.5C116 470.985 118.015 473 120.5 473Z" fill="#EFF0FE"/>
<path d="M149.5 473C151.985 473 154 470.985 154 468.5C154 466.015 151.985 464 149.5 464C147.015 464 145 466.015 145 468.5C145 470.985 147.015 473 149.5 473Z" fill="#EFF0FE"/>
<path d="M178.5 473C180.985 473 183 470.985 183 468.5C183 466.015 180.985 464 178.5 464C176.015 464 174 466.015 174 468.5C174 470.985 176.015 473 178.5 473Z" fill="#EFF0FE"/>
<path d="M4.5 502C6.98528 502 9 499.985 9 497.5C9 495.015 6.98528 493 4.5 493C2.01472 493 0 495.015 0 497.5C0 499.985 2.01472 502 4.5 502Z" fill="#EFF0FE"/>
<path d="M33.5 502C35.9853 502 38 499.985 38 497.5C38 495.015 35.9853 493 33.5 493C31.0147 493 29 495.015 29 497.5C29 499.985 31.0147 502 33.5 502Z" fill="#EFF0FE"/>
<path d="M62.5 502C64.9853 502 67 499.985 67 497.5C67 495.015 64.9853 493 62.5 493C60.0147 493 58 495.015 58 497.5C58 499.985 60.0147 502 62.5 502Z" fill="#EFF0FE"/>
<path d="M91.5 502C93.9853 502 96 499.985 96 497.5C96 495.015 93.9853 493 91.5 493C89.0147 493 87 495.015 87 497.5C87 499.985 89.0147 502 91.5 502Z" fill="#EFF0FE"/>
<path d="M120.5 502C122.985 502 125 499.985 125 497.5C125 495.015 122.985 493 120.5 493C118.015 493 116 495.015 116 497.5C116 499.985 118.015 502 120.5 502Z" fill="#EFF0FE"/>
<path d="M149.5 502C151.985 502 154 499.985 154 497.5C154 495.015 151.985 493 149.5 493C147.015 493 145 495.015 145 497.5C145 499.985 147.015 502 149.5 502Z" fill="#EFF0FE"/>
<path d="M178.5 502C180.985 502 183 499.985 183 497.5C183 495.015 180.985 493 178.5 493C176.015 493 174 495.015 174 497.5C174 499.985 176.015 502 178.5 502Z" fill="#EFF0FE"/>
</svg>
