<svg width="84" height="64" viewBox="0 0 84 64" fill="none" xmlns="http://www.w3.org/2000/svg">
<path d="M62.1574 2.83195C63.5183 2.52545 64.9419 2.66838 66.2147 3.2393C67.4876 3.81022 68.541 4.77836 69.2171 5.99856C72.0186 10.984 74.7621 16.0034 77.3804 21.0886C77.7856 21.8442 78.0339 22.6738 78.1106 23.5277C78.1872 24.3816 78.0906 25.2422 77.8265 26.0579C77.5624 26.8735 77.1362 27.6274 76.5736 28.2743C76.011 28.9212 75.3235 29.4478 74.5523 29.8225C69.6422 32.4615 64.6996 35.0414 59.7245 37.562C58.8958 37.9117 58.1752 38.4758 57.6368 39.1964C57.0984 39.9169 56.7616 40.7678 56.661 41.6616C56.3574 44.0515 56.0826 46.446 55.7526 48.8327C55.6404 49.723 55.4484 50.6014 55.1791 51.4573C54.6443 53.0818 53.5048 53.7852 51.8845 53.2156C49.7529 52.4666 47.7148 51.4518 45.6399 50.544C45.2509 50.3743 44.8697 50.1812 44.4995 49.9733C43.1936 49.1603 41.678 48.748 40.1403 48.7874C38.6025 48.8268 37.11 49.3162 35.8474 50.195C31.6563 52.7442 27.2335 54.917 22.8733 57.1831C19.0987 59.1457 15.528 57.9853 13.5399 54.2555C11.0726 49.6272 8.60147 44.9997 6.12644 40.3732C4.12002 36.622 5.26224 32.8924 9.0196 30.8948C25.9575 21.8864 42.8953 12.878 59.8332 3.86952C60.5818 3.47291 61.3811 3.17544 62.1574 2.83195Z" fill="#FF014E"/>
<path d="M31.7321 31.4776C31.1982 31.3142 30.6357 31.2658 30.0817 31.3356C29.5278 31.4055 28.9949 31.592 28.5183 31.8828C28.0417 32.1736 27.6321 32.5622 27.3166 33.0229C27.0012 33.4836 26.787 34.006 26.6881 34.5555C26.1959 34.3425 25.6655 34.232 25.1292 34.2306C24.593 34.2293 24.062 34.3372 23.5688 34.5477C23.0755 34.7582 22.6303 35.067 22.2603 35.4551C21.8902 35.8433 21.6031 36.3027 21.4164 36.8055C21.2297 37.3082 21.1473 37.8437 21.1743 38.3793C21.2012 38.915 21.337 39.4395 21.5732 39.9209C21.8095 40.4024 22.1413 40.8307 22.5485 41.1797C22.9556 41.5287 23.4296 41.7912 23.9415 41.9511L31.6979 44.32C31.7265 44.3289 31.7565 44.3319 31.7863 44.3291C31.8161 44.3263 31.845 44.3176 31.8714 44.3035C31.8978 44.2895 31.9212 44.2704 31.9402 44.2472C31.9592 44.2241 31.9734 44.1975 31.9821 44.1688L34.351 36.4125C34.6568 35.4108 34.5528 34.3287 34.0619 33.4036C33.5709 32.4784 32.7331 31.7858 31.7321 31.4776Z" fill="white"/>
<path d="M44.6286 33.5068C47.1221 32.2903 47.7641 29.7568 46.3558 26.8703C45.6726 25.47 44.7198 24.4522 43.6304 23.9648C42.538 23.4713 41.2688 23.5659 40.0405 24.1652C37.9094 25.205 36.9966 27.2926 37.9225 29.1904C38.7436 30.8732 40.6356 31.4784 42.2876 30.6723C43.4914 30.085 43.9716 29.1056 43.8283 28.1262L43.8406 28.1202L43.8529 28.1142L43.8774 28.1022C44.8456 29.7437 44.6831 31.0471 43.7128 31.5205C43.1723 31.7842 42.589 31.7419 42.2865 31.418L39.75 32.6556C40.7021 34.0615 42.7432 34.4267 44.6286 33.5068ZM42.1838 28.4647C41.5021 28.7973 40.7191 28.5483 40.3955 27.885C40.0689 27.2156 40.3576 26.436 41.0332 26.1064C41.7026 25.7798 42.4825 26.038 42.8091 26.7074C43.1327 27.3707 42.8533 28.1381 42.1838 28.4647ZM53.3251 29.2639C55.8185 28.0473 56.4605 25.5138 55.0522 22.6273C54.369 21.227 53.4162 20.2092 52.3269 19.7219C51.2345 19.2283 49.9652 19.323 48.7369 19.9222C46.6058 20.962 45.6931 23.0497 46.619 24.9474C47.44 26.6302 49.332 27.2354 50.9841 26.4294C52.1878 25.8421 52.668 24.8626 52.5247 23.8833L52.537 23.8773L52.5493 23.8713L52.5739 23.8593C53.542 25.5007 53.3796 26.8041 52.4092 27.2776C51.8687 27.5413 51.2854 27.4989 50.983 27.1751L48.4465 28.4126C49.3986 29.8185 51.4396 30.1838 53.3251 29.2639ZM50.8803 24.2218C50.1986 24.5544 49.4155 24.3053 49.0919 23.642C48.7653 22.9726 49.0541 22.193 49.7296 21.8634C50.3991 21.5368 51.1789 21.795 51.5056 22.4644C51.8292 23.1277 51.5497 23.8952 50.8803 24.2218ZM62.0215 25.0209C64.515 23.8044 65.157 21.2709 63.7487 18.3844C63.0655 16.9841 62.1127 15.9663 61.0233 15.4789C59.9309 14.9854 58.6617 15.08 57.4334 15.6793C55.3023 16.7191 54.3895 18.8067 55.3154 20.7045C56.1365 22.3873 58.0285 22.9925 59.6805 22.1864C60.8843 21.5991 61.3645 20.6197 61.2212 19.6403L61.2335 19.6343L61.2458 19.6283L61.2703 19.6163C62.2385 21.2578 62.076 22.5612 61.1056 23.0346C60.5652 23.2983 59.9819 23.256 59.6794 22.9321L57.1429 24.1696C58.095 25.5756 60.1361 25.9408 62.0215 25.0209ZM59.5767 19.9788C58.895 20.3114 58.112 20.0624 57.7884 19.3991C57.4618 18.7297 57.7505 17.9501 58.4261 17.6205C59.0955 17.2939 59.8754 17.5521 60.202 18.2215C60.5256 18.8848 60.2462 19.6522 59.5767 19.9788Z" fill="white"/>
</svg>
