<svg width="139" height="48" viewBox="0 0 139 48" fill="none" xmlns="http://www.w3.org/2000/svg">
<path d="M59 23.5C59 12.7304 50.2696 4 39.5 4C28.7304 4 20 12.7304 20 23.5C20 34.2696 28.7304 43 39.5 43C50.2696 43 59 34.2696 59 23.5Z" fill="#FFC432"/>
<path d="M39 23.5C39 12.7304 30.2696 4 19.5 4C8.73045 4 0 12.7304 0 23.5C0 34.2696 8.73045 43 19.5 43C30.2696 43 39 34.2696 39 23.5Z" fill="#FF014E"/>
<path d="M82.836 14.772H73.906V18.23H82.646V25.602H73.906V34H66.306V7.4H82.836V14.772ZM107.303 34V6.26H114.333V34H107.303Z" fill="#3740FF"/>
<path d="M94.8686 34.532C92.0313 34.532 89.612 33.5693 87.6106 31.644C85.6346 29.7187 84.6466 27.3373 84.6466 24.5C84.6466 21.6627 85.6346 19.2813 87.6106 17.356C89.5866 15.4307 92.006 14.468 94.8686 14.468C97.7313 14.468 100.151 15.4307 102.127 17.356C104.103 19.2813 105.091 21.6627 105.091 24.5C105.091 27.3373 104.103 29.7187 102.127 31.644C100.151 33.5693 97.7313 34.532 94.8686 34.532ZM92.5506 26.932C93.1586 27.54 93.9313 27.844 94.8686 27.844C95.806 27.844 96.566 27.54 97.1486 26.932C97.7566 26.2987 98.0606 25.488 98.0606 24.5C98.0606 23.512 97.7566 22.714 97.1486 22.106C96.566 21.4727 95.806 21.156 94.8686 21.156C93.9313 21.156 93.1586 21.4727 92.5506 22.106C91.968 22.714 91.6766 23.512 91.6766 24.5C91.6766 25.488 91.968 26.2987 92.5506 26.932Z" fill="#FFC432"/>
<path d="M126.746 34.532C123.908 34.532 121.489 33.5693 119.488 31.644C117.512 29.7187 116.524 27.3373 116.524 24.5C116.524 21.6627 117.512 19.2813 119.488 17.356C121.464 15.4307 123.883 14.468 126.746 14.468C129.608 14.468 132.028 15.4307 134.004 17.356C135.98 19.2813 136.968 21.6627 136.968 24.5C136.968 27.3373 135.98 29.7187 134.004 31.644C132.028 33.5693 129.608 34.532 126.746 34.532ZM124.428 26.932C125.036 27.54 125.808 27.844 126.746 27.844C127.683 27.844 128.443 27.54 129.026 26.932C129.634 26.2987 129.938 25.488 129.938 24.5C129.938 23.512 129.634 22.714 129.026 22.106C128.443 21.4727 127.683 21.156 126.746 21.156C125.808 21.156 125.036 21.4727 124.428 22.106C123.845 22.714 123.554 23.512 123.554 24.5C123.554 25.488 123.845 26.2987 124.428 26.932Z" fill="#FF014E"/>
</svg>
