<svg width="286" height="240" viewBox="0 0 286 240" fill="none" xmlns="http://www.w3.org/2000/svg">
<path d="M148.5 233C199.034 233 240 192.034 240 141.5C240 90.9659 199.034 50 148.5 50C97.9659 50 57 90.9659 57 141.5C57 192.034 97.9659 233 148.5 233Z" fill="#00E5FF"/>
<path d="M40 80C62.0914 80 80 62.0914 80 40C80 17.9086 62.0914 0 40 0C17.9086 0 0 17.9086 0 40C0 62.0914 17.9086 80 40 80Z" fill="#FF014E"/>
<path d="M18.5 213C28.7173 213 37 204.717 37 194.5C37 184.283 28.7173 176 18.5 176C8.28273 176 0 184.283 0 194.5C0 204.717 8.28273 213 18.5 213Z" fill="#FFC432"/>
<path d="M140 116L159 118V122L140 120V116Z" fill="#EDEEFE"/>
<path d="M140 123L149.5 124V126L140 125V123Z" fill="#EDEEFE"/>
<path d="M176 109H121C113.82 109 108 114.82 108 122V227C108 234.18 113.82 240 121 240H176C183.18 240 189 234.18 189 227V122C189 114.82 183.18 109 176 109Z" fill="white"/>
<path d="M128.5 147C133.194 147 137 143.194 137 138.5C137 133.806 133.194 130 128.5 130C123.806 130 120 133.806 120 138.5C120 143.194 123.806 147 128.5 147Z" fill="#474DFF"/>
<path d="M169 134H147C145.895 134 145 134.895 145 136C145 137.105 145.895 138 147 138H169C170.105 138 171 137.105 171 136C171 134.895 170.105 134 169 134Z" fill="#474DFF"/>
<path d="M161 140H147C145.895 140 145 140.895 145 142C145 143.105 145.895 144 147 144H161C162.105 144 163 143.105 163 142C163 140.895 162.105 140 161 140Z" fill="#474DFF"/>
<path opacity="0.1" d="M132 158H122C119.239 158 117 160.239 117 163V173C117 175.761 119.239 178 122 178H132C134.761 178 137 175.761 137 173V163C137 160.239 134.761 158 132 158Z" fill="#767BF2"/>
<path opacity="0.1" d="M132 181H122C119.239 181 117 183.239 117 186V196C117 198.761 119.239 201 122 201H132C134.761 201 137 198.761 137 196V186C137 183.239 134.761 181 132 181Z" fill="#767BF2"/>
<path opacity="0.1" d="M132 204H122C119.239 204 117 206.239 117 209V219C117 221.761 119.239 224 122 224H132C134.761 224 137 221.761 137 219V209C137 206.239 134.761 204 132 204Z" fill="#767BF2"/>
<path opacity="0.1" d="M155 158H145C142.239 158 140 160.239 140 163V173C140 175.761 142.239 178 145 178H155C157.761 178 160 175.761 160 173V163C160 160.239 157.761 158 155 158Z" fill="#767BF2"/>
<path opacity="0.1" d="M155 181H145C142.239 181 140 183.239 140 186V196C140 198.761 142.239 201 145 201H155C157.761 201 160 198.761 160 196V186C160 183.239 157.761 181 155 181Z" fill="#767BF2"/>
<path opacity="0.1" d="M155 204H145C142.239 204 140 206.239 140 209V219C140 221.761 142.239 224 145 224H155C157.761 224 160 221.761 160 219V209C160 206.239 157.761 204 155 204Z" fill="#767BF2"/>
<path opacity="0.1" d="M178 158H168C165.239 158 163 160.239 163 163V173C163 175.761 165.239 178 168 178H178C180.761 178 183 175.761 183 173V163C183 160.239 180.761 158 178 158Z" fill="#767BF2"/>
<path opacity="0.1" d="M178 181H168C165.239 181 163 183.239 163 186V196C163 198.761 165.239 201 168 201H178C180.761 201 183 198.761 183 196V186C183 183.239 180.761 181 178 181Z" fill="#767BF2"/>
<path opacity="0.1" d="M178 204H168C165.239 204 163 206.239 163 209V219C163 221.761 165.239 224 168 224H178C180.761 224 183 221.761 183 219V209C183 206.239 180.761 204 178 204Z" fill="#767BF2"/>
<path d="M247 111.649C238.657 111.654 230.509 114.17 223.616 118.87C216.723 123.57 211.404 130.236 208.352 138C211.4 145.768 216.717 152.438 223.612 157.139C230.506 161.84 238.657 164.355 247.002 164.355C255.347 164.355 263.498 161.84 270.392 157.139C277.287 152.438 282.604 145.768 285.652 138C282.602 130.233 277.283 123.566 270.388 118.866C263.494 114.165 255.344 111.651 247 111.649ZM247 155.568C243.525 155.568 240.129 154.538 237.24 152.607C234.351 150.677 232.099 147.933 230.769 144.723C229.44 141.513 229.092 137.98 229.77 134.573C230.447 131.165 232.121 128.034 234.578 125.577C237.034 123.121 240.165 121.447 243.573 120.769C246.981 120.092 250.513 120.44 253.723 121.769C256.933 123.099 259.677 125.351 261.607 128.24C263.538 131.129 264.568 134.525 264.568 138C264.566 142.659 262.715 147.126 259.421 150.421C256.126 153.715 251.659 155.566 247 155.568ZM247 127.46C244.915 127.46 242.878 128.078 241.145 129.237C239.411 130.395 238.061 132.041 237.263 133.967C236.465 135.893 236.257 138.012 236.664 140.057C237.07 142.101 238.074 143.979 239.548 145.453C241.023 146.927 242.901 147.931 244.945 148.337C246.99 148.744 249.109 148.535 251.035 147.738C252.961 146.94 254.607 145.589 255.765 143.856C256.923 142.122 257.541 140.084 257.541 138C257.539 135.205 256.427 132.525 254.451 130.549C252.475 128.573 249.795 127.462 247 127.46Z" fill="white"/>
<path d="M247 149C253.075 149 258 144.075 258 138C258 131.925 253.075 127 247 127C240.925 127 236 131.925 236 138C236 144.075 240.925 149 247 149Z" fill="#FF014E"/>
<path d="M247 146.5C251.694 146.5 255.5 142.694 255.5 138C255.5 133.306 251.694 129.5 247 129.5C242.306 129.5 238.5 133.306 238.5 138C238.5 142.694 242.306 146.5 247 146.5Z" stroke="white" stroke-width="5"/>
<path d="M179 40.228C172.74 40.2317 166.626 42.1198 161.453 45.6464C156.281 49.173 152.29 54.1749 150 60.001C152.287 65.8293 156.277 70.8332 161.45 74.3602C166.623 77.8873 172.739 79.7738 179 79.7738C185.261 79.7738 191.377 77.8873 196.55 74.3602C201.723 70.8332 205.713 65.8293 208 60.001C205.711 54.1737 201.721 49.1708 196.548 45.6439C191.376 42.1171 185.261 40.2298 179 40.228ZM179 73.183C176.393 73.183 173.844 72.4099 171.676 70.9615C169.509 69.513 167.819 67.4543 166.821 65.0456C165.824 62.6369 165.563 59.9864 166.071 57.4293C166.58 54.8723 167.835 52.5235 169.679 50.6799C171.522 48.8364 173.871 47.5809 176.428 47.0723C178.985 46.5637 181.636 46.8247 184.045 47.8224C186.453 48.8202 188.512 50.5097 189.96 52.6775C191.409 54.8453 192.182 57.3939 192.182 60.001C192.181 63.4967 190.791 66.8488 188.32 69.3206C185.848 71.7925 182.496 73.1817 179 73.183ZM179 52.092C177.436 52.092 175.907 52.5559 174.606 53.4249C173.305 54.294 172.292 55.5292 171.693 56.9744C171.094 58.4196 170.938 60.0098 171.243 61.544C171.548 63.0782 172.301 64.4874 173.407 65.5935C174.514 66.6996 175.923 67.4529 177.457 67.7581C178.991 68.0632 180.581 67.9066 182.027 67.308C183.472 66.7094 184.707 65.6957 185.576 64.395C186.445 63.0944 186.909 61.5653 186.909 60.001C186.907 57.9039 186.074 55.8932 184.591 54.4103C183.108 52.9274 181.097 52.0936 179 52.092Z" fill="white"/>
<path d="M179 68C183.418 68 187 64.4183 187 60C187 55.5817 183.418 52 179 52C174.582 52 171 55.5817 171 60C171 64.4183 174.582 68 179 68Z" fill="#FF014E"/>
<path d="M179 65.5C182.038 65.5 184.5 63.0376 184.5 60C184.5 56.9624 182.038 54.5 179 54.5C175.962 54.5 173.5 56.9624 173.5 60C173.5 63.0376 175.962 65.5 179 65.5Z" stroke="white" stroke-width="5"/>
<path d="M56.7 123C53.0951 123.002 49.5742 124.089 46.5957 126.12C43.6172 128.151 41.3189 131.031 40 134.386C41.3171 137.742 43.615 140.624 46.5939 142.655C49.5728 144.686 53.0946 145.772 56.7 145.772C60.3054 145.772 63.8272 144.686 66.8061 142.655C69.785 140.624 72.0829 137.742 73.4 134.386C72.082 131.03 69.784 128.149 66.8053 126.119C63.8265 124.088 60.3052 123.001 56.7 123ZM56.7 141.977C55.1986 141.977 53.731 141.532 52.4827 140.698C51.2343 139.864 50.2614 138.678 49.6868 137.291C49.1123 135.904 48.962 134.378 49.2549 132.905C49.5478 131.433 50.2707 130.08 51.3324 129.018C52.394 127.957 53.7466 127.234 55.2191 126.941C56.6916 126.648 58.2179 126.798 59.6049 127.373C60.992 127.947 62.1776 128.92 63.0117 130.169C63.8458 131.417 64.291 132.885 64.291 134.386C64.2902 136.399 63.4902 138.329 62.0668 139.753C60.6434 141.176 58.713 141.976 56.7 141.977ZM56.7 129.832C55.7991 129.832 54.9184 130.099 54.1694 130.6C53.4203 131.1 52.8365 131.812 52.4917 132.644C52.147 133.476 52.0568 134.392 52.2325 135.276C52.4083 136.159 52.8421 136.971 53.4791 137.608C54.1162 138.245 54.9278 138.679 55.8114 138.854C56.6949 139.03 57.6108 138.94 58.4431 138.595C59.2754 138.251 59.9868 137.667 60.4873 136.918C60.9879 136.169 61.255 135.288 61.255 134.387C61.2542 133.179 60.774 132.021 59.92 131.167C59.0659 130.313 57.9078 129.833 56.7 129.832Z" fill="white"/>
<path d="M56.5 139C58.9853 139 61 136.985 61 134.5C61 132.015 58.9853 130 56.5 130C54.0147 130 52 132.015 52 134.5C52 136.985 54.0147 139 56.5 139Z" fill="#FF014E"/>
<path d="M56.5 136.5C57.6046 136.5 58.5 135.605 58.5 134.5C58.5 133.395 57.6046 132.5 56.5 132.5C55.3954 132.5 54.5 133.395 54.5 134.5C54.5 135.605 55.3954 136.5 56.5 136.5Z" stroke="white" stroke-width="5"/>
</svg>
