<svg width="128" height="221" viewBox="0 0 128 221" fill="none" xmlns="http://www.w3.org/2000/svg">
<path d="M101 0H27C12.0883 0 0 12.0883 0 27V194C0 208.912 12.0883 221 27 221H101C115.912 221 128 208.912 128 194V27C128 12.0883 115.912 0 101 0Z" fill="#FF014E"/>
<path opacity="0.2" d="M83 176H45C36.1634 176 29 183.163 29 192C29 200.837 36.1634 208 45 208H83C91.8366 208 99 200.837 99 192C99 183.163 91.8366 176 83 176Z" fill="white"/>
<path opacity="0.2" d="M120.79 34.5911H50.79C48.5808 34.5911 46.79 36.3819 46.79 38.5911C46.79 40.8002 48.5808 42.5911 50.79 42.5911H120.79C122.999 42.5911 124.79 40.8002 124.79 38.5911C124.79 36.3819 122.999 34.5911 120.79 34.5911Z" fill="white"/>
<g opacity="0.5">
<path opacity="0.5" d="M38.127 42.238V43.149C38.1198 43.674 37.908 44.1755 37.5367 44.5467C37.1655 44.918 36.664 45.1298 36.139 45.137H20.232C19.707 45.1298 19.2055 44.918 18.8343 44.5467C18.463 44.1755 18.2512 43.674 18.244 43.149V42.238C18.244 39.838 21.061 38.344 23.712 37.184L23.961 37.06C24.06 37.0156 24.1683 36.9961 24.2766 37.0033C24.3849 37.0104 24.4897 37.044 24.582 37.101C25.6372 37.8034 26.8765 38.1781 28.144 38.178C29.4095 38.1643 30.6449 37.7908 31.706 37.101C31.7983 37.044 31.9031 37.0104 32.0114 37.0033C32.1197 36.9961 32.228 37.0156 32.327 37.06L32.576 37.184C35.31 38.344 38.127 39.794 38.127 42.238ZM28.186 25.254C29.5644 25.3264 30.8577 25.9429 31.7819 26.9682C32.7061 27.9934 33.1855 29.3435 33.115 30.722C33.1855 32.1005 32.7061 33.4506 31.7819 34.4759C30.8577 35.5011 29.5644 36.1176 28.186 36.19C26.8074 36.1179 25.5139 35.5015 24.5895 34.4762C23.6651 33.451 23.1855 32.1007 23.256 30.722C23.1855 29.3434 23.6651 27.9931 24.5895 26.9678C25.5139 25.9426 26.8074 25.3262 28.186 25.254Z" fill="white"/>
</g>
<path opacity="0.2" d="M120.79 74.5911H50.79C48.5808 74.5911 46.79 76.3819 46.79 78.5911C46.79 80.8002 48.5808 82.5911 50.79 82.5911H120.79C122.999 82.5911 124.79 80.8002 124.79 78.5911C124.79 76.3819 122.999 74.5911 120.79 74.5911Z" fill="white"/>
<g opacity="0.5">
<path opacity="0.5" d="M38.127 82.238V83.149C38.1198 83.674 37.908 84.1755 37.5367 84.5467C37.1655 84.918 36.664 85.1298 36.139 85.137H20.232C19.707 85.1298 19.2055 84.918 18.8343 84.5467C18.463 84.1755 18.2512 83.674 18.244 83.149V82.238C18.244 79.838 21.061 78.344 23.712 77.184L23.961 77.06C24.06 77.0156 24.1683 76.9961 24.2766 77.0033C24.3849 77.0104 24.4897 77.044 24.582 77.101C25.6372 77.8034 26.8765 78.1781 28.144 78.178C29.4095 78.1643 30.6449 77.7908 31.706 77.101C31.7983 77.044 31.9031 77.0104 32.0114 77.0033C32.1197 76.9961 32.228 77.0156 32.327 77.06L32.576 77.184C35.31 78.344 38.127 79.794 38.127 82.238ZM28.186 65.254C29.5644 65.3264 30.8577 65.9429 31.7819 66.9682C32.7061 67.9934 33.1855 69.3435 33.115 70.722C33.1855 72.1005 32.7061 73.4506 31.7819 74.4759C30.8577 75.5011 29.5644 76.1176 28.186 76.19C26.8074 76.1179 25.5139 75.5015 24.5895 74.4762C23.6651 73.451 23.1855 72.1007 23.256 70.722C23.1855 69.3434 23.6651 67.9931 24.5895 66.9678C25.5139 65.9426 26.8074 65.3262 28.186 65.254Z" fill="white"/>
</g>
<path opacity="0.2" d="M120.79 114.591H50.79C48.5808 114.591 46.79 116.382 46.79 118.591C46.79 120.8 48.5808 122.591 50.79 122.591H120.79C122.999 122.591 124.79 120.8 124.79 118.591C124.79 116.382 122.999 114.591 120.79 114.591Z" fill="white"/>
<g opacity="0.5">
<path opacity="0.5" d="M38.127 122.238V123.149C38.1198 123.674 37.908 124.175 37.5367 124.547C37.1655 124.918 36.664 125.13 36.139 125.137H20.232C19.707 125.13 19.2055 124.918 18.8343 124.547C18.463 124.175 18.2512 123.674 18.244 123.149V122.238C18.244 119.838 21.061 118.344 23.712 117.184L23.961 117.06C24.06 117.016 24.1683 116.996 24.2766 117.003C24.3849 117.01 24.4897 117.044 24.582 117.101C25.6372 117.803 26.8765 118.178 28.144 118.178C29.4095 118.164 30.6449 117.791 31.706 117.101C31.7983 117.044 31.9031 117.01 32.0114 117.003C32.1197 116.996 32.228 117.016 32.327 117.06L32.576 117.184C35.31 118.344 38.127 119.794 38.127 122.238ZM28.186 105.254C29.5644 105.326 30.8577 105.943 31.7819 106.968C32.7061 107.993 33.1855 109.344 33.115 110.722C33.1855 112.101 32.7061 113.451 31.7819 114.476C30.8577 115.501 29.5644 116.118 28.186 116.19C26.8074 116.118 25.5139 115.501 24.5895 114.476C23.6651 113.451 23.1855 112.101 23.256 110.722C23.1855 109.343 23.6651 107.993 24.5895 106.968C25.5139 105.943 26.8074 105.326 28.186 105.254Z" fill="white"/>
</g>
<path opacity="0.2" d="M120.79 154.591H50.79C48.5808 154.591 46.79 156.382 46.79 158.591C46.79 160.8 48.5808 162.591 50.79 162.591H120.79C122.999 162.591 124.79 160.8 124.79 158.591C124.79 156.382 122.999 154.591 120.79 154.591Z" fill="white"/>
<g opacity="0.5">
<path opacity="0.5" d="M38.127 162.238V163.149C38.1198 163.674 37.908 164.175 37.5367 164.547C37.1655 164.918 36.664 165.13 36.139 165.137H20.232C19.707 165.13 19.2055 164.918 18.8343 164.547C18.463 164.175 18.2512 163.674 18.244 163.149V162.238C18.244 159.838 21.061 158.344 23.712 157.184L23.961 157.06C24.06 157.016 24.1683 156.996 24.2766 157.003C24.3849 157.01 24.4897 157.044 24.582 157.101C25.6372 157.803 26.8765 158.178 28.144 158.178C29.4095 158.164 30.6449 157.791 31.706 157.101C31.7983 157.044 31.9031 157.01 32.0114 157.003C32.1197 156.996 32.228 157.016 32.327 157.06L32.576 157.184C35.31 158.344 38.127 159.794 38.127 162.238ZM28.186 145.254C29.5644 145.326 30.8577 145.943 31.7819 146.968C32.7061 147.993 33.1855 149.344 33.115 150.722C33.1855 152.101 32.7061 153.451 31.7819 154.476C30.8577 155.501 29.5644 156.118 28.186 156.19C26.8074 156.118 25.5139 155.501 24.5895 154.476C23.6651 153.451 23.1855 152.101 23.256 150.722C23.1855 149.343 23.6651 147.993 24.5895 146.968C25.5139 145.943 26.8074 145.326 28.186 145.254Z" fill="white"/>
</g>
</svg>
