<svg width="459" height="505" viewBox="0 0 459 505" fill="none" xmlns="http://www.w3.org/2000/svg">
<path d="M281 394H268C261.925 394 257 398.925 257 405V428C257 434.075 261.925 439 268 439H281C287.075 439 292 434.075 292 428V405C292 398.925 287.075 394 281 394Z" fill="#545AEE"/>
<path d="M281 381H268C261.925 381 257 385.925 257 392V415C257 421.075 261.925 426 268 426H281C287.075 426 292 421.075 292 415V392C292 385.925 287.075 381 281 381Z" fill="#7479F1"/>
<path d="M284 351.5C284 346.253 279.747 342 274.5 342C269.253 342 265 346.253 265 351.5V402.5C265 407.747 269.253 412 274.5 412C279.747 412 284 407.747 284 402.5V351.5Z" fill="#545AEE"/>
<path d="M209 402H196C189.925 402 185 406.925 185 413V436C185 442.075 189.925 447 196 447H209C215.075 447 220 442.075 220 436V413C220 406.925 215.075 402 209 402Z" fill="#545AEE"/>
<path d="M209 391H196C189.925 391 185 395.925 185 402V425C185 431.075 189.925 436 196 436H209C215.075 436 220 431.075 220 425V402C220 395.925 215.075 391 209 391Z" fill="#7479F1"/>
<path d="M143.165 242.5C143.165 242.5 98.932 237.478 65.978 202.17" stroke="#545AEE" stroke-width="12" stroke-linecap="round"/>
<path d="M52.211 174.612L57.244 179.477L60.024 176.601C62.1785 174.372 66.0466 173.104 69.2581 174.818C69.5455 174.954 69.7949 175.16 69.9843 175.415C70.1736 175.671 70.2971 175.97 70.3438 176.284C70.3975 176.591 70.3769 176.906 70.2834 177.203C70.19 177.5 70.0266 177.77 69.807 177.991L65.9845 181.945L65.1315 190.022L54.359 201.166L52.2979 200.565C50.2953 199.895 48.4654 198.791 46.939 197.332L39.749 190.382C38.9724 189.616 38.4933 188.599 38.3972 187.513C38.301 186.426 38.594 185.341 39.224 184.45L46.4855 174.78L46.555 174.708C47.2939 173.948 48.3034 173.512 49.3632 173.494C50.4229 173.476 51.4467 173.878 52.211 174.612Z" fill="#545AEE"/>
<path d="M68.053 191.316L70.929 194.096C71.0305 194.183 71.1124 194.29 71.1693 194.411C71.2261 194.532 71.2567 194.664 71.259 194.798C71.2613 194.931 71.2352 195.064 71.1824 195.187C71.1297 195.309 71.0515 195.42 70.953 195.51L59.138 207.733C59.051 207.834 58.9435 207.916 58.8226 207.973C58.7016 208.03 58.57 208.061 58.4364 208.063C58.3027 208.065 58.1701 208.039 58.0473 207.986C57.9245 207.934 57.8143 207.855 57.724 207.757L54.848 204.977C54.7465 204.89 54.6646 204.783 54.6077 204.662C54.5508 204.541 54.5202 204.409 54.5179 204.275C54.5157 204.142 54.5418 204.009 54.5945 203.886C54.6473 203.764 54.7255 203.653 54.824 203.563L66.639 191.34C66.7259 191.239 66.8334 191.157 66.9544 191.1C67.0753 191.043 67.2069 191.012 67.3406 191.01C67.4742 191.008 67.6068 191.034 67.7296 191.087C67.8524 191.139 67.9626 191.218 68.053 191.316Z" fill="#545AEE"/>
<path d="M334 242.5C334 242.5 387.376 237.478 427.142 202.17" stroke="#545AEE" stroke-width="12" stroke-linecap="round"/>
<path d="M443.273 176.005L437.988 180.597L435.48 177.71C434.407 176.465 432.963 175.597 431.36 175.235C429.757 174.872 428.079 175.034 426.575 175.696C426.284 175.82 426.026 176.012 425.822 176.254C425.619 176.497 425.476 176.785 425.404 177.093C425.328 177.385 425.324 177.69 425.394 177.983C425.463 178.276 425.604 178.547 425.803 178.773L429.252 182.742L429.49 190.64L439.209 201.826L441.271 201.301C443.289 200.703 445.158 199.684 446.754 198.31L454.304 191.75C455.116 191.055 455.657 190.095 455.831 189.04C456.005 187.985 455.802 186.903 455.256 185.983L448.863 176.338L448.797 176.262C448.096 175.5 447.123 175.045 446.088 174.996C445.053 174.948 444.042 175.31 443.273 176.005Z" fill="#545AEE"/>
<path d="M425.985 191.181L422.965 193.805C422.859 193.886 422.771 193.989 422.708 194.107C422.645 194.225 422.607 194.355 422.598 194.488C422.589 194.622 422.608 194.755 422.654 194.881C422.7 195.006 422.772 195.121 422.866 195.216L434.018 208.051C434.099 208.157 434.202 208.244 434.32 208.308C434.438 208.371 434.568 208.408 434.701 208.418C434.834 208.427 434.968 208.408 435.094 208.362C435.219 208.316 435.333 208.244 435.429 208.15L438.449 205.526C438.555 205.445 438.642 205.341 438.706 205.224C438.769 205.106 438.806 204.976 438.816 204.843C438.825 204.709 438.806 204.576 438.76 204.45C438.714 204.325 438.641 204.21 438.548 204.115L427.396 191.28C427.314 191.174 427.211 191.086 427.094 191.023C426.976 190.96 426.846 190.922 426.713 190.913C426.579 190.904 426.445 190.923 426.32 190.969C426.194 191.015 426.08 191.087 425.985 191.181Z" fill="#545AEE"/>
<path d="M334 242.5C334 242.5 387.376 237.478 427.142 202.17" stroke="white" stroke-width="3" stroke-linecap="round"/>
<path d="M314 184H159C149.059 184 141 192.059 141 202V344C141 353.941 149.059 362 159 362H314C323.941 362 332 353.941 332 344V202C332 192.059 323.941 184 314 184Z" fill="#474DFF"/>
<path d="M212 351.5C212 346.253 207.747 342 202.5 342C197.253 342 193 346.253 193 351.5V402.5C193 407.747 197.253 412 202.5 412C207.747 412 212 407.747 212 402.5V351.5Z" fill="#545AEE"/>
<path d="M211.5 262C216.747 262 221 257.747 221 252.5C221 247.253 216.747 243 211.5 243C206.253 243 202 247.253 202 252.5C202 257.747 206.253 262 211.5 262Z" fill="white"/>
<path d="M264.5 262C269.747 262 274 257.747 274 252.5C274 247.253 269.747 243 264.5 243C259.253 243 255 247.253 255 252.5C255 257.747 259.253 262 264.5 262Z" fill="white"/>
<path d="M266.955 297.5C263.087 301.369 258.495 304.437 253.441 306.531C248.387 308.624 242.97 309.702 237.5 309.702C232.029 309.702 226.613 308.624 221.559 306.531C216.505 304.437 211.913 301.369 208.045 297.5" stroke="white" stroke-width="12" stroke-miterlimit="10" stroke-linecap="round"/>
<path opacity="0.11" d="M166 234.5C166 230.358 162.642 227 158.5 227C154.358 227 151 230.358 151 234.5V339.5C151 343.642 154.358 347 158.5 347C162.642 347 166 343.642 166 339.5V234.5Z" fill="white"/>
<path opacity="0.11" d="M325 234.5C325 230.358 321.642 227 317.5 227C313.358 227 310 230.358 310 234.5V339.5C310 343.642 313.358 347 317.5 347C321.642 347 325 343.642 325 339.5V234.5Z" fill="white"/>
<path d="M314.5 184H158.5C148.835 184 141 191.835 141 201.5C141 211.165 148.835 219 158.5 219H314.5C324.165 219 332 211.165 332 201.5C332 191.835 324.165 184 314.5 184Z" fill="#474DFF"/>
<path d="M314.5 186.5H158.5C150.216 186.5 143.5 193.216 143.5 201.5C143.5 209.784 150.216 216.5 158.5 216.5H314.5C322.784 216.5 329.5 209.784 329.5 201.5C329.5 193.216 322.784 186.5 314.5 186.5Z" stroke="#8D91FB" stroke-width="5"/>
<path opacity="0.5" d="M65.7 202.924C65.7 202.924 103.406 241.624 144.427 241.624" stroke="white" stroke-width="3" stroke-linecap="round"/>
<path opacity="0.1" d="M33.5 426C52.0015 426 67 411.002 67 392.5C67 373.998 52.0015 359 33.5 359C14.9985 359 0 373.998 0 392.5C0 411.002 14.9985 426 33.5 426Z" fill="#FF014E"/>
<path d="M356.5 505C366.165 505 374 497.165 374 487.5C374 477.835 366.165 470 356.5 470C346.835 470 339 477.835 339 487.5C339 497.165 346.835 505 356.5 505Z" fill="#00E5FF"/>
<path d="M196.5 35C206.165 35 214 27.165 214 17.5C214 7.83502 206.165 0 196.5 0C186.835 0 179 7.83502 179 17.5C179 27.165 186.835 35 196.5 35Z" fill="#FFC432"/>
<path d="M111.994 150.5H99C95.1544 150.5 91.4662 148.972 88.747 146.253C86.0277 143.534 84.5 139.846 84.5 136V113C84.5 109.154 86.0277 105.466 88.747 102.747C91.4662 100.028 95.1544 98.5 99 98.5H138C141.846 98.5 145.534 100.028 148.253 102.747C150.972 105.466 152.5 109.154 152.5 113V136C152.5 139.846 150.972 143.534 148.253 146.253C145.534 148.972 141.846 150.5 138 150.5H125.073L118.533 157.04L111.994 150.5Z" fill="#FF014E"/>
<path d="M128.337 129.647V130.558C128.33 131.083 128.118 131.584 127.747 131.956C127.375 132.327 126.874 132.539 126.349 132.546H110.442C109.917 132.539 109.416 132.327 109.044 131.956C108.673 131.584 108.461 131.083 108.454 130.558V129.647C108.454 127.247 111.271 125.753 113.922 124.593L114.171 124.469C114.27 124.425 114.378 124.405 114.487 124.412C114.595 124.419 114.7 124.453 114.792 124.51C115.847 125.212 117.086 125.587 118.354 125.587C119.619 125.573 120.855 125.2 121.916 124.51C122.008 124.453 122.113 124.419 122.221 124.412C122.33 124.405 122.438 124.425 122.537 124.469L122.786 124.593C125.52 125.753 128.337 127.203 128.337 129.647ZM118.396 112.663C119.774 112.735 121.068 113.352 121.992 114.377C122.916 115.402 123.396 116.753 123.325 118.131C123.396 119.509 122.916 120.86 121.992 121.885C121.068 122.91 119.774 123.527 118.396 123.599C117.017 123.527 115.724 122.91 114.799 121.885C113.875 120.86 113.395 119.51 113.466 118.131C113.395 116.752 113.875 115.402 114.799 114.377C115.724 113.352 117.017 112.735 118.396 112.663Z" fill="#FAF9FC"/>
<path d="M358.972 143.408H354C350.154 143.408 346.466 141.88 343.747 139.161C341.028 136.442 339.5 132.754 339.5 128.908V121.079C339.5 117.233 341.028 113.545 343.747 110.826C346.466 108.107 350.154 106.579 354 106.579H373.161C377.007 106.579 380.695 108.107 383.414 110.826C386.133 113.545 387.661 117.233 387.661 121.079V128.908C387.661 132.754 386.133 136.442 383.414 139.161C380.695 141.88 377.007 143.408 373.161 143.408H368.236L363.6 148.039L358.972 143.408Z" fill="#FFC432"/>
<path d="M370.548 128.639V129.284C370.543 129.656 370.393 130.011 370.13 130.274C369.867 130.537 369.512 130.687 369.14 130.692H357.874C357.502 130.687 357.147 130.537 356.884 130.274C356.621 130.011 356.471 129.656 356.466 129.284V128.639C356.466 126.939 358.461 125.881 360.339 125.06L360.515 124.972C360.585 124.94 360.662 124.927 360.739 124.932C360.815 124.937 360.89 124.961 360.955 125.001C361.702 125.499 362.58 125.764 363.478 125.764C364.374 125.754 365.25 125.49 366.001 125.001C366.066 124.961 366.141 124.937 366.217 124.932C366.294 124.927 366.371 124.94 366.441 124.972L366.617 125.06C368.553 125.881 370.548 126.91 370.548 128.639ZM363.507 116.61C364.483 116.661 365.399 117.098 366.054 117.824C366.708 118.55 367.048 119.507 366.998 120.483C367.048 121.459 366.708 122.415 366.053 123.141C365.399 123.867 364.483 124.304 363.507 124.355C362.531 124.304 361.615 123.867 360.961 123.141C360.306 122.415 359.967 121.459 360.016 120.483C359.966 119.507 360.306 118.55 360.96 117.824C361.615 117.098 362.531 116.661 363.507 116.61Z" fill="#FAF9FC"/>
<path d="M66.664 302.508H57.408C53.5624 302.508 49.8742 300.98 47.155 298.261C44.4357 295.542 42.908 291.854 42.908 288.008V272.079C42.908 268.233 44.4357 264.545 47.155 261.826C49.8742 259.107 53.5624 257.579 57.408 257.579H87.161C91.0067 257.579 94.6948 259.107 97.4141 261.826C100.133 264.545 101.661 268.233 101.661 272.079V288.008C101.661 291.854 100.133 295.542 97.4141 298.261C94.6948 300.98 91.0067 302.508 87.161 302.508H77.961L72.311 308.158L66.664 302.508Z" fill="#00E5FF"/>
<path d="M80.784 284.49V285.277C80.7778 285.731 80.5948 286.164 80.274 286.485C79.9531 286.806 79.5198 286.989 79.066 286.995H65.323C64.8695 286.989 64.4363 286.806 64.1154 286.485C63.7946 286.165 63.6115 285.732 63.605 285.278V284.491C63.605 282.416 66.039 281.126 68.329 280.124L68.544 280.017C68.6297 279.979 68.7234 279.962 68.817 279.968C68.9106 279.974 69.0013 280.004 69.081 280.053C69.9928 280.66 71.0637 280.984 72.159 280.984C73.2526 280.972 74.3202 280.649 75.237 280.053C75.3168 280.004 75.4074 279.974 75.5011 279.968C75.5947 279.962 75.6884 279.979 75.774 280.017L75.989 280.124C78.351 281.126 80.784 282.378 80.784 284.49ZM72.195 269.816C73.386 269.878 74.5036 270.411 75.3021 271.297C76.1007 272.182 76.515 273.349 76.454 274.54C76.515 275.731 76.1007 276.898 75.3021 277.783C74.5036 278.669 73.386 279.202 72.195 279.264C71.0041 279.202 69.8865 278.669 69.0879 277.783C68.2894 276.898 67.875 275.731 67.936 274.54C67.875 273.349 68.2894 272.182 69.0879 271.297C69.8865 270.411 71.0041 269.878 72.195 269.816Z" fill="white"/>
<path d="M258.162 201.341H252.408C248.562 201.341 244.874 199.813 242.155 197.094C239.436 194.375 237.908 190.687 237.908 186.841V177.535C237.908 173.689 239.436 170.001 242.155 167.282C244.874 164.563 248.562 163.035 252.408 163.035H273.5C277.346 163.035 281.034 164.563 283.753 167.282C286.472 170.001 288 173.689 288 177.535V186.841C288 190.687 286.472 194.375 283.753 197.094C281.034 199.813 277.346 201.341 273.5 201.341H267.8L262.982 206.159L258.162 201.341Z" fill="#00D707"/>
<path d="M270.201 185.979V186.65C270.196 187.037 270.04 187.407 269.766 187.68C269.493 187.954 269.123 188.11 268.736 188.115H257.019C256.632 188.11 256.262 187.954 255.989 187.68C255.715 187.407 255.559 187.037 255.554 186.65V185.979C255.554 184.209 257.629 183.111 259.582 182.256L259.765 182.164C259.838 182.131 259.918 182.117 259.998 182.122C260.078 182.128 260.155 182.153 260.223 182.195C261 182.712 261.913 182.988 262.847 182.988C263.779 182.978 264.689 182.703 265.471 182.195C265.539 182.153 265.616 182.128 265.696 182.122C265.776 182.117 265.856 182.131 265.929 182.164L266.112 182.256C268.126 183.111 270.201 184.179 270.201 185.979ZM262.878 173.468C263.893 173.522 264.846 173.976 265.527 174.731C266.207 175.486 266.561 176.481 266.509 177.496C266.561 178.511 266.207 179.506 265.527 180.261C264.846 181.016 263.893 181.47 262.878 181.524C261.863 181.471 260.91 181.017 260.229 180.261C259.548 179.506 259.194 178.512 259.246 177.496C259.194 176.48 259.548 175.486 260.229 174.731C260.91 173.975 261.863 173.521 262.878 173.468Z" fill="#FAF9FC"/>
<path d="M400.994 284.5H388C384.154 284.5 380.466 282.972 377.747 280.253C375.028 277.534 373.5 273.846 373.5 270V247C373.5 243.154 375.028 239.466 377.747 236.747C380.466 234.028 384.154 232.5 388 232.5H427C430.846 232.5 434.534 234.028 437.253 236.747C439.972 239.466 441.5 243.154 441.5 247V270C441.5 273.846 439.972 277.534 437.253 280.253C434.534 282.972 430.846 284.5 427 284.5H414.073L407.533 291.04L400.994 284.5Z" fill="#FF014E"/>
<path d="M416.318 252.667C415.75 252.098 415.067 251.655 414.315 251.369C413.563 251.083 412.759 250.959 411.956 251.006C411.152 251.054 410.368 251.271 409.655 251.643C408.942 252.015 408.316 252.535 407.818 253.167C407.337 252.56 406.737 252.058 406.055 251.691C405.373 251.324 404.624 251.1 403.852 251.033C403.081 250.965 402.304 251.056 401.569 251.299C400.833 251.542 400.156 251.933 399.577 252.447C398.998 252.962 398.53 253.588 398.201 254.29C397.873 254.991 397.691 255.752 397.667 256.526C397.643 257.3 397.777 258.071 398.06 258.791C398.344 259.512 398.772 260.167 399.318 260.716L407.582 268.98C407.612 269.01 407.649 269.035 407.688 269.051C407.728 269.068 407.771 269.076 407.814 269.076C407.857 269.076 407.9 269.068 407.94 269.051C407.979 269.035 408.016 269.01 408.046 268.98L416.31 260.716C417.376 259.649 417.976 258.202 417.977 256.693C417.979 255.184 417.382 253.737 416.318 252.667Z" fill="white"/>
</svg>
